<?xml version="1.0" encoding="utf-8"?>
<!-- Generator: Adobe Illustrator 16.0.0, SVG Export Plug-In . SVG Version: 6.00 Build 0)  -->
<!DOCTYPE svg PUBLIC "-//W3C//DTD SVG 1.1//EN" "http://www.w3.org/Graphics/SVG/1.1/DTD/svg11.dtd">
<svg version="1.1" id="Layer_1" xmlns="http://www.w3.org/2000/svg" xmlns:xlink="http://www.w3.org/1999/xlink" x="0px" y="0px"
	 width="10px" height="16px" viewBox="0 0 10 16" enable-background="new 0 0 10 16" xml:space="preserve">
<path fill-rule="evenodd" clip-rule="evenodd" fill="#FFFFFF" d="M7.04,15.498L0.502,9.154c-0.674-0.654-0.674-1.715,0-2.369
	c0.675-0.654,1.768-0.654,2.442,0l6.538,6.344c0.674,0.654,0.674,1.715,0,2.369C8.808,16.152,7.715,16.152,7.04,15.498z"/>
<path fill-rule="evenodd" clip-rule="evenodd" fill="#FFFFFF" d="M7.04,0.487L0.502,6.831c-0.674,0.655-0.674,1.715,0,2.37
	c0.675,0.654,1.768,0.654,2.442,0l6.538-6.344c0.674-0.654,0.674-1.716,0-2.37C8.808-0.167,7.715-0.167,7.04,0.487z"/>
</svg>
