<?xml version="1.0" encoding="utf-8"?>
<!-- Generator: Adobe Illustrator 16.0.0, SVG Export Plug-In . SVG Version: 6.00 Build 0)  -->
<!DOCTYPE svg PUBLIC "-//W3C//DTD SVG 1.1//EN" "http://www.w3.org/Graphics/SVG/1.1/DTD/svg11.dtd">
<svg version="1.1" id="Layer_1" xmlns="http://www.w3.org/2000/svg" xmlns:xlink="http://www.w3.org/1999/xlink" x="0px" y="0px"
	 width="10px" height="16px" viewBox="0 0 10 16" enable-background="new 0 0 10 16" xml:space="preserve">
<path fill-rule="evenodd" clip-rule="evenodd" fill="#FFFFFF" d="M2.944,0.487l6.538,6.344c0.674,0.654,0.674,1.715,0,2.369
	c-0.675,0.654-1.768,0.654-2.442,0L0.502,2.857c-0.674-0.654-0.674-1.715,0-2.37S2.27-0.167,2.944,0.487z"/>
<path fill-rule="evenodd" clip-rule="evenodd" fill="#FFFFFF" d="M2.944,15.498l6.538-6.344c0.674-0.655,0.674-1.715,0-2.37
	c-0.675-0.654-1.768-0.654-2.442,0l-6.538,6.343c-0.674,0.654-0.674,1.716,0,2.37S2.27,16.152,2.944,15.498z"/>
</svg>
