<?xml version="1.0" encoding="utf-8"?>
<!-- Generator: Adobe Illustrator 16.0.0, SVG Export Plug-In . SVG Version: 6.00 Build 0)  -->
<!DOCTYPE svg PUBLIC "-//W3C//DTD SVG 1.1//EN" "http://www.w3.org/Graphics/SVG/1.1/DTD/svg11.dtd">
<svg version="1.1" id="Layer_1" xmlns="http://www.w3.org/2000/svg" xmlns:xlink="http://www.w3.org/1999/xlink" x="0px" y="0px"
	 width="36px" height="19.5px" viewBox="0 0 36 19.5" enable-background="new 0 0 36 19.5" xml:space="preserve">
<path fill="#FFFFFF" d="M34.529,15h-1.235H22.176h-7.117H2.706H1.471C0.106,15,0,13.926,0,12.6V12h1l1-3c0.402-1.326,1.636-2,3-2
	l1.5-1l4.627-4.399C12.085,0.617,13.661,0,15.559,0h5.936c1.365,0,1.691,0.518,2.973,1.8L29,6l3,1c1.364,0,2,0.174,2,1.5l1,3.5h1
	v0.6C36,13.926,35.895,15,34.529,15z M15,1.5c0,0,1.263,0-0.5,0c-1.863,0-5.5,5-5.5,5h6V1.5z M21.5,1.5c-1.763,0-5,0-5,0v5h10
	C26.5,6.5,22.938,1.5,21.5,1.5z"/>
<path fill="#0C2577" d="M9,10.5c2.485,0,4.5,2.015,4.5,4.5s-2.015,4.5-4.5,4.5S4.5,17.485,4.5,15S6.515,10.5,9,10.5z"/>
<path fill="#FFFFFF" d="M9,12c1.657,0,3,1.344,3,3s-1.343,3-3,3s-3-1.344-3-3S7.343,12,9,12z"/>
<path fill="#0C2577" d="M27.5,10.5c2.485,0,4.5,2.015,4.5,4.5s-2.015,4.5-4.5,4.5S23,17.485,23,15S25.015,10.5,27.5,10.5z"/>
<path fill="#FFFFFF" d="M27.5,12c1.656,0,3,1.344,3,3s-1.344,3-3,3s-3-1.344-3-3S25.844,12,27.5,12z"/>
</svg>
