<?xml version="1.0" encoding="utf-8"?>
<!-- Generator: Adobe Illustrator 16.0.0, SVG Export Plug-In . SVG Version: 6.00 Build 0)  -->
<!DOCTYPE svg PUBLIC "-//W3C//DTD SVG 1.1//EN" "http://www.w3.org/Graphics/SVG/1.1/DTD/svg11.dtd">
<svg version="1.1" id="Layer_1" xmlns="http://www.w3.org/2000/svg" xmlns:xlink="http://www.w3.org/1999/xlink" x="0px" y="0px"
	 width="16px" height="16px" viewBox="0 0 16 16" enable-background="new 0 0 16 16" xml:space="preserve">
<path fill-rule="evenodd" clip-rule="evenodd" fill="#FFFFFF" d="M7.5,0h1v16h-1V0z"/>
<path fill-rule="evenodd" clip-rule="evenodd" fill="#FFFFFF" d="M16,7.5v1H0v-1H16z"/>
<path fill-rule="evenodd" clip-rule="evenodd" fill="#FFFFFF" d="M8,3c2.762,0,5,2.239,5,5c0,2.762-2.238,5-5,5
	c-2.761,0-5-2.238-5-5C3,5.239,5.239,3,8,3z"/>
<path fill-rule="evenodd" clip-rule="evenodd" fill="#FF0D01" d="M8,4c2.209,0,4,1.791,4,4s-1.791,4-4,4s-4-1.791-4-4S5.791,4,8,4z"
	/>
<path fill-rule="evenodd" clip-rule="evenodd" fill="#FFFFFF" d="M8,5.5c1.381,0,2.5,1.119,2.5,2.5S9.381,10.5,8,10.5
	S5.5,9.381,5.5,8S6.619,5.5,8,5.5z"/>
</svg>
