<?xml version="1.0" encoding="utf-8"?>
<!-- Generator: Adobe Illustrator 16.0.0, SVG Export Plug-In . SVG Version: 6.00 Build 0)  -->
<!DOCTYPE svg PUBLIC "-//W3C//DTD SVG 1.1//EN" "http://www.w3.org/Graphics/SVG/1.1/DTD/svg11.dtd">
<svg version="1.1" id="Layer_1" xmlns="http://www.w3.org/2000/svg" xmlns:xlink="http://www.w3.org/1999/xlink" x="0px" y="0px"
	 width="19px" height="25px" viewBox="0 0 19 25" enable-background="new 0 0 19 25" xml:space="preserve">
<path fill="#FFFFFF" d="M17.88,21.313v-0.004l-3.102-5.076c-0.237-0.395-0.753-0.516-1.151-0.287l-1.849,1.061l0.152,0.247
	c-0.818,0.356-1.543-0.448-2.83-2.138l-2.646-4.323C5.933,9.686,5.52,8.563,6.313,8.021l0.085,0.14l1.848-1.058V7.1
	c0.423-0.243,0.524-0.748,0.296-1.122V5.975L5.441,0.898C5.204,0.506,4.688,0.384,4.29,0.613L2.443,1.672l0.113,0.184
	C1.533,2.67-1.024,6.517,4.049,15.051c5.266,8.857,10.284,8.802,11.557,8.229l0.128,0.216l1.849-1.058v-0.002
	C18.007,22.191,18.106,21.688,17.88,21.313z"/>
</svg>
