<?xml version="1.0" encoding="utf-8"?>
<!-- Generator: Adobe Illustrator 16.0.0, SVG Export Plug-In . SVG Version: 6.00 Build 0)  -->
<!DOCTYPE svg PUBLIC "-//W3C//DTD SVG 1.1//EN" "http://www.w3.org/Graphics/SVG/1.1/DTD/svg11.dtd">
<svg version="1.1" id="Layer_1" xmlns="http://www.w3.org/2000/svg" xmlns:xlink="http://www.w3.org/1999/xlink" x="0px" y="0px"
	 width="16px" height="13px" viewBox="0 0 16 13" enable-background="new 0 0 16 13" xml:space="preserve">
<path fill-rule="evenodd" clip-rule="evenodd" fill="#FFFFFF" d="M8.253,13c-2.706,0-4.996-1.732-5.797-4.129l-0.511,1.988
	c-0.117,0.457-0.585,0.723-1.046,0.594c-0.46-0.128-0.738-0.602-0.621-1.057l1.112-4.324c0.004-0.028-0.003-0.056,0.004-0.084
	C1.455,5.756,1.605,5.574,1.8,5.467c0.191-0.112,0.427-0.15,0.661-0.084C2.489,5.391,2.51,5.411,2.538,5.421l4.365,1.215
	c0.46,0.128,0.738,0.602,0.621,1.057C7.406,8.149,6.938,8.415,6.478,8.287L4.245,7.666C4.568,9.557,6.237,11,8.253,11
	c1.124,0,2.142-0.447,2.878-1.172l1.438,1.414C11.465,12.328,9.938,13,8.253,13z"/>
<path fill-rule="evenodd" clip-rule="evenodd" fill="#FFFFFF" d="M15.723,2.604l-1.102,4.324c-0.005,0.028,0.002,0.056-0.005,0.084
	c-0.06,0.232-0.209,0.414-0.401,0.521c-0.189,0.111-0.423,0.149-0.654,0.084c-0.029-0.008-0.049-0.027-0.076-0.039L9.16,6.364
	C8.705,6.236,8.429,5.762,8.545,5.307c0.116-0.456,0.58-0.722,1.036-0.594l2.212,0.622C11.473,3.443,9.82,2,7.823,2
	C6.71,2,5.702,2.448,4.973,3.171L3.548,1.757C4.642,0.671,6.153,0,7.823,0c2.68,0,4.949,1.732,5.742,4.128l0.507-1.988
	c0.116-0.456,0.58-0.722,1.036-0.594C15.563,1.675,15.838,2.148,15.723,2.604z"/>
</svg>
