<?xml version="1.0" encoding="utf-8"?>
<!-- Generator: Adobe Illustrator 16.0.0, SVG Export Plug-In . SVG Version: 6.00 Build 0)  -->
<!DOCTYPE svg PUBLIC "-//W3C//DTD SVG 1.1//EN" "http://www.w3.org/Graphics/SVG/1.1/DTD/svg11.dtd">
<svg version="1.1" id="Layer_1" xmlns="http://www.w3.org/2000/svg" xmlns:xlink="http://www.w3.org/1999/xlink" x="0px" y="0px"
	 width="24px" height="24px" viewBox="0 0 24 24" enable-background="new 0 0 24 24" xml:space="preserve">
<path fill="#CCCCCC" d="M17.63,14.52c0.92-1.479,1.38-3.099,1.38-4.859c0-2.56-0.959-4.79-2.88-6.69
	c-1.92-1.899-4.16-2.85-6.72-2.85c-2.561,0-4.74,0.91-6.54,2.73c-1.8,1.82-2.7,4.01-2.7,6.57c0,2.561,0.95,4.791,2.85,6.689
	c1.899,1.9,4.13,2.851,6.69,2.851c1.64,0,3.2-0.42,4.681-1.26l5.699,5.7c0.64,0.64,1.32,0.64,2.04,0l1.38-1.381
	c0.48-0.559,0.42-1.179-0.18-1.859L17.63,14.52z M9.41,3c1.76,0,3.32,0.67,4.68,2.01c1.359,1.341,2.04,2.891,2.04,4.65
	c0,1.8-0.63,3.33-1.89,4.59s-2.771,1.891-4.53,1.891c-1.761,0-3.32-0.681-4.68-2.041c-1.36-1.359-2.04-2.919-2.04-4.68
	c0-1.76,0.63-3.27,1.89-4.53C6.14,3.63,7.649,3,9.41,3z"/>
</svg>
