<?xml version="1.0" encoding="UTF-8" standalone="no"?>
<!DOCTYPE svg  PUBLIC '-//W3C//DTD SVG 1.1//EN'  'http://www.w3.org/Graphics/SVG/1.1/DTD/svg11.dtd'>
<svg xmlns="http://www.w3.org/2000/svg">
<defs>
<font id="HelveticaNeueLT-BoldCond" horiz-adv-x="480">
<font-face underline-position="-75" font-weight="700" descent="-200" panose-1="0 0 7 0 0 0 0 0 0 0" units-per-em="1000" unicode-range="U+0001-2122" bbox="-46 -224 1066 961" x-height="538" underline-thickness="50" font-family="HelveticaNeueLT" ascent="800" cap-height="714"/>
<missing-glyph horiz-adv-x="1000"/>
<glyph glyph-name=".notdef" horiz-adv-x="1000"/>
<glyph glyph-name=".null" horiz-adv-x="0"/>
<glyph glyph-name="nonmarkingreturn" horiz-adv-x="1000"/>
<glyph glyph-name="caron" d="M39 601l-78 144h106l46 -85l48 85h100l-78 -144h-144z" horiz-adv-x="222"/>
<glyph glyph-name="dotlessi" d="M51 0v538h138v-538h-138z" horiz-adv-x="240"/>
<glyph glyph-name="ring" d="M53 698q0 -24 17 -41t41 -17t41 17t17 41t-17 41t-41 17t-41 -17t-17 -41zM-3 698q0 47 33.5 80.5t80.5 33.5t80.5 -33.5t33.5 -80.5t-33.5 -80.5t-80.5 -33.5t-80.5 33.5t-33.5 80.5z" horiz-adv-x="222"/>
<glyph glyph-name="space" horiz-adv-x="240" unicode=" "/>
<glyph glyph-name="exclam" horiz-adv-x="296" unicode="!" d="M79 132h138v-132h-138v132zM198 199h-100l-19 283v232h138v-232z"/>
<glyph glyph-name="quotedbl" horiz-adv-x="463" unicode='&quot;' d="M72 393v321h124v-321h-124zM267 393v321h124v-321h-124z"/>
<glyph glyph-name="numbersign" d="M199 408l-15 -122h97l16 122h-98zM0 174v112h87l16 122h-73v112h86l22 174h96l-21 -174h97l22 174h97l-22 -174h73v-112h-86l-16 -122h73v-112h-86l-22 -174h-97l22 174h-98l-21 -174h-97l22 174h-74z" unicode="#"/>
<glyph glyph-name="dollar" d="M205 -101v87q-114 9 -160 69q-36 46 -36 136v21h138q0 -51 9 -76q13 -35 49 -44v202l-50 18q-137 49 -137 192q0 183 187 204v69h64v-69q185 -15 185 -189v-14h-138q-2 82 -47 97v-189l79 -32q62 -25 89 -60q34 -43 34 -121q0 -106 -50 -156.5t-152 -57.5v-87h-64z M205 442v160q-49 -15 -49 -76q0 -55 49 -84zM269 269v-177q58 13 58 80q0 66 -58 97z" unicode="$"/>
<glyph glyph-name="percent" horiz-adv-x="778" unicode="%" d="M140 -31l406 756h89l-406 -756h-89zM133 521q0 -66 7 -89q9 -30 37 -30t37 30q7 23 7 89q0 60 -7 82q-9 29 -37 29t-37 -29q-7 -22 -7 -82zM27 517q0 103 29 144q32 47 121 47t122 -47q28 -41 28 -144t-28 -144q-33 -47 -122 -47t-121 47q-29 41 -29 144zM451 177 q0 103 29 144q32 47 121 47t122 -47q28 -41 28 -144t-28 -144q-33 -47 -122 -47t-121 47q-29 41 -29 144zM557 181q0 -66 7 -89q9 -30 37 -30t37 30q7 23 7 89q0 60 -7 82q-9 29 -37 29t-37 -29q-7 -22 -7 -82z"/>
<glyph glyph-name="ampersand" horiz-adv-x="593" unicode="&amp;" d="M319 380l107 -145q25 52 25 108h124q0 -107 -73 -211l94 -132h-153l-40 55q-58 -69 -172 -69q-121 0 -177 73q-42 54 -42 133q0 117 144 206l-25 37q-48 71 -48 129q0 69 50.5 109.5t131.5 40.5q88 0 135 -43q43 -40 43 -106q0 -98 -124 -185zM343 143l-120 170 q-73 -57 -73 -121q0 -37 26 -64q28 -30 74 -30q57 0 93 45zM201 568q0 -27 36 -78l17 -24l26 22q45 38 45 78q0 60 -63 60q-26 0 -43.5 -15.5t-17.5 -42.5z"/>
<glyph glyph-name="quotesingle" horiz-adv-x="260" unicode="&apos;" d="M68 393v321h124v-321h-124z"/>
<glyph glyph-name="parenleft" horiz-adv-x="296" unicode="(" d="M190 714h106q-62 -112 -88 -216.5t-26 -232.5t26 -231q26 -106 88 -218h-106q-140 223 -140 449t140 449z"/>
<glyph glyph-name="parenright" horiz-adv-x="296" unicode=")" d="M0 714h106q140 -223 140 -449t-140 -449h-106q62 112 88 218q26 103 26 231t-26 232.5t-88 216.5z"/>
<glyph glyph-name="asterisk" horiz-adv-x="390" unicode="*" d="M154 714h82v-128l122 40l25 -78l-122 -40l76 -104l-67 -48l-75 104l-75 -104l-67 48l76 104l-122 40l25 78l122 -40v128z"/>
<glyph glyph-name="plus" horiz-adv-x="600" unicode="+" d="M238 0v191h-191v124h191v191h124v-191h191v-124h-191v-191h-124z"/>
<glyph glyph-name="comma" horiz-adv-x="240" unicode="," d="M54 156h132v-130q0 -88 -26 -132q-31 -52 -106 -59v70q52 9 52 79v16h-52v156z"/>
<glyph glyph-name="hyphenminus" horiz-adv-x="600" unicode="-" d="M47 191v124h506v-124h-506z"/>
<glyph glyph-name="period" horiz-adv-x="240" unicode="." d="M54 156h132v-156h-132v156z"/>
<glyph glyph-name="slash" horiz-adv-x="332" unicode="/" d="M-3 -14l226 742h112l-226 -742h-112z"/>
<glyph glyph-name="zero" d="M18 330q0 186 32 263q48 115 190 115q126 0 174 -76.5t48 -267.5q0 -186 -32 -263q-48 -115 -190 -115q-126 0 -175 78q-47 75 -47 266zM162 376v-77q0 -133 15.5 -176t62.5 -43t63 51q15 48 15 187v77q0 133 -15.5 176t-62.5 43t-62.5 -49.5t-15.5 -188.5z" unicode="0"/>
<glyph glyph-name="one" d="M326 0h-144v500h-141v94h13q146 0 166 114h106v-708z" unicode="1"/>
<glyph glyph-name="two" d="M454 112v-112h-436q0 92 39 166q36 68 117 144l58 54q46 43 60 74.5t14 87.5q0 88 -70 88q-49 0 -67 -41q-12 -29 -13 -97h-138v27q0 205 220 205q212 0 212 -193q0 -69 -25 -119t-85 -106l-80 -74q-61 -56 -73 -104h267z" unicode="2"/>
<glyph glyph-name="three" d="M20 207h138q1 -59 12 -85q18 -42 67 -42t67 36q12 24 12 78q0 121 -93 121h-48v94h47q82 0 82 112q0 93 -69 93q-43 0 -60 -32q-13 -26 -13 -83h-132q0 209 208 209q204 0 204 -182q0 -132 -108 -156v-2q126 -19 126 -167q0 -215 -235 -215q-101 0 -153 57.5t-52 160.5v3 z" unicode="3"/>
<glyph glyph-name="four" d="M14 147v118l235 443h149v-449h68v-112h-68v-147h-132v147h-252zM266 259v269h-2l-138 -269h140z" unicode="4"/>
<glyph glyph-name="five" d="M425 694v-112h-261l-15 -161h2q39 53 130 53q173 0 173 -226q0 -128 -45 -189q-54 -73 -182 -73q-209 0 -209 197v19h138q0 -116 70 -116q84 0 84 138q0 88 -17 119t-66 31q-60 0 -68 -65h-129l26 385h369z" unicode="5"/>
<glyph glyph-name="six" d="M165 220q0 -62 11 -91q17 -49 68 -49q48 0 65 40q13 30 13 100q0 72 -18 103t-60 31q-43 0 -61 -31t-18 -103zM449 528h-138q0 86 -65 86q-53 0 -72 -51q-16 -40 -16 -129v-35h2q40 61 133 61q173 0 173 -221q0 -253 -229 -253q-135 0 -186 101q-37 73 -37 230 q0 195 31 271q50 120 207 120q194 0 197 -180z" unicode="6"/>
<glyph glyph-name="seven" d="M22 694h436v-110q-168 -237 -208 -584h-151q42 328 221 570h-298v124z" unicode="7"/>
<glyph glyph-name="eight" d="M158 202q0 -122 82 -122t82 122t-82 122t-82 -122zM170 517q0 -99 70 -99t70 99q0 97 -70 97t-70 -97zM14 200q0 69 31 116t89 59v2q-52 14 -79 56q-23 36 -23 80q0 195 208 195t208 -195q0 -44 -22 -80q-28 -42 -80 -56v-2q58 -12 89 -59t31 -116q0 -84 -39 -137 q-56 -77 -187 -77t-187 77q-39 53 -39 137z" unicode="8"/>
<glyph glyph-name="nine" d="M158 474q0 -72 18 -103t60 -31q43 0 61 31t18 103q0 62 -11 91q-17 49 -68 49q-48 0 -65 -40q-13 -30 -13 -100zM31 165h138q0 -85 65 -85q53 0 73 51q15 40 15 129v34h-2q-40 -60 -133 -60q-173 0 -173 221q0 253 229 253q135 0 186 -101q37 -73 37 -230 q0 -196 -31 -271q-50 -120 -207 -120q-194 0 -197 179z" unicode="9"/>
<glyph glyph-name="colon" horiz-adv-x="240" unicode=":" d="M54 365v156h132v-156h-132zM54 0v156h132v-156h-132z"/>
<glyph glyph-name="semicolon" horiz-adv-x="240" unicode=";" d="M54 521h132v-156h-132v156zM54 156h132v-130q0 -88 -26 -132q-31 -52 -106 -59v70q52 9 52 79v16h-52v156z"/>
<glyph glyph-name="less" horiz-adv-x="600" unicode="&lt;" d="M47 200v106l506 208v-124l-338 -137l338 -137v-124z"/>
<glyph glyph-name="equal" horiz-adv-x="600" unicode="=" d="M47 82v124h506v-124h-506zM47 300v124h506v-124h-506z"/>
<glyph glyph-name="greater" horiz-adv-x="600" unicode="&gt;" d="M47 -8v124l338 137l-338 137v124l506 -208v-106z"/>
<glyph glyph-name="question" horiz-adv-x="481" unicode="?" d="M162 132h138v-132h-138v132zM168 493h-132v23q0 93 51 149.5t147 56.5q103 0 157 -51.5t54 -141.5q0 -85 -63 -156l-40 -45q-28 -31 -38 -53q-11 -25 -11 -62v-15h-124v39q0 87 62 157l38 43q38 43 38 106q0 85 -68 85q-71 0 -71 -110v-25z"/>
<glyph glyph-name="at" horiz-adv-x="800" unicode="@" d="M522 488l13 53h88l-58 -250q-6 -26 -6 -41q0 -20 20 -20q34 0 67 48q37 53 37 126q0 98 -79.5 164t-186.5 66q-115 0 -195.5 -84t-80.5 -194q0 -113 84 -194.5t199 -81.5q112 0 217 64h89q-111 -158 -330 -158q-154 0 -262.5 108.5t-108.5 262.5t108.5 262.5t262.5 108.5 t261 -83q110 -86 110 -220q0 -139 -101 -222q-77 -64 -150 -64q-60 0 -65 53h-2q-49 -53 -120 -53q-57 0 -100 45q-46 49 -46 125q0 97 58 169q62 77 156 77q80 0 121 -67zM299 326q0 -34 20 -57.5t51 -23.5q49 0 84 42q32 39 32 86q0 31 -22 53.5t-53 22.5q-46 0 -79 -39.5 t-33 -83.5z"/>
<glyph glyph-name="A" horiz-adv-x="556" unicode="A" d="M277 590l-69 -321h140l-69 321h-2zM0 0l189 714h178l189 -714h-150l-33 151h-190l-33 -151h-150z"/>
<glyph glyph-name="B" horiz-adv-x="556" unicode="B" d="M194 321v-215h56q116 0 116 108q0 107 -110 107h-62zM194 608v-187h41q115 0 115 94q0 50 -25 71.5t-79 21.5h-52zM50 0v714h241q203 0 203 -181q0 -126 -108 -156v-2q60 -8 95 -52t35 -114q0 -93 -48 -146q-57 -63 -175 -63h-243z"/>
<glyph glyph-name="C" horiz-adv-x="537" unicode="C" d="M499 473h-144q0 80 -19 114.5t-67 34.5q-53 0 -72 -62q-18 -57 -18 -213q0 -154 23 -208q19 -47 69 -47q44 0 65 33q25 41 25 148h144q0 -134 -43 -201q-54 -86 -184 -86q-149 0 -202 104q-41 79 -41 267t41 267q53 104 202 104q136 0 188 -88q33 -58 33 -167z"/>
<glyph glyph-name="D" horiz-adv-x="574" unicode="D" d="M201 608v-502h64q73 0 98 56q22 51 22 201q0 134 -20 183q-26 62 -103 62h-61zM57 0v714h236q140 0 193 -95q43 -76 43 -252q0 -197 -51 -278q-55 -89 -194 -89h-227z"/>
<glyph glyph-name="E" horiz-adv-x="481" unicode="E" d="M50 714h399v-118h-255v-168h240v-118h-240v-192h265v-118h-409v714z"/>
<glyph glyph-name="F" horiz-adv-x="463" unicode="F" d="M50 0v714h399v-118h-255v-168h240v-118h-240v-310h-144z"/>
<glyph glyph-name="G" horiz-adv-x="556" unicode="G" d="M505 502h-138q0 46 -19 80q-23 40 -63 40q-52 0 -75 -58t-23 -192q0 -143 18 -204q23 -76 81 -76q30 0 57 28q32 33 32 86v73h-95v106h233v-385h-106v66h-2q-49 -80 -150 -80q-126 0 -172 97q-40 82 -40 282q0 188 51 272q56 91 189 91q222 0 222 -226z"/>
<glyph glyph-name="H" horiz-adv-x="556" unicode="H" d="M50 0v714h144v-273h168v273h144v-714h-144v317h-168v-317h-144z"/>
<glyph glyph-name="I" horiz-adv-x="258" unicode="I" d="M201 0h-144v714h144v-714z"/>
<glyph glyph-name="J" horiz-adv-x="463" unicode="J" d="M275 714h144v-514q0 -113 -52 -163.5t-163 -50.5q-189 0 -189 209v31h132v-22q0 -60 13 -84q14 -28 51 -28t52 28q12 24 12 84v510z"/>
<glyph glyph-name="K" horiz-adv-x="537" unicode="K" d="M50 714h144v-286h2l182 286h156l-194 -306l216 -408h-162l-147 293l-53 -81v-212h-144v714z"/>
<glyph glyph-name="L" horiz-adv-x="463" unicode="L" d="M449 0h-399v714h144v-596h255v-118z"/>
<glyph glyph-name="M" horiz-adv-x="740" unicode="M" d="M53 0v714h214l102 -504h2l103 504h213v-714h-132v570h-2l-127 -570h-112l-127 570h-2v-570h-132z"/>
<glyph glyph-name="N" horiz-adv-x="574" unicode="N" d="M50 714h166l174 -489h2v489h132v-714h-164l-176 500h-2v-500h-132v714z"/>
<glyph glyph-name="O" horiz-adv-x="556" unicode="O" d="M179 357q0 -152 18 -204q20 -61 81 -61t81 61q18 52 18 204q0 151 -18 204q-20 61 -81 61t-81 -61q-18 -53 -18 -204zM35 357q0 188 41 267q53 104 202 104t203 -104q40 -79 40 -267t-40 -267q-54 -104 -203 -104t-202 104q-41 79 -41 267z"/>
<glyph glyph-name="P" horiz-adv-x="519" unicode="P" d="M194 608v-217h64q96 0 96 107q0 110 -100 110h-60zM50 0v714h252q102 0 153 -67q43 -56 43 -147q0 -108 -60.5 -161.5t-166.5 -53.5h-77v-285h-144z"/>
<glyph glyph-name="Q" horiz-adv-x="556" unicode="Q" d="M179 357q0 -152 18 -204q20 -61 81 -61t81 61q18 52 18 204q0 151 -18 204q-20 61 -81 61t-81 -61q-18 -53 -18 -204zM543 -11l-85 -77l-85 88q-36 -14 -95 -14q-149 0 -202 104q-41 79 -41 267t41 267q53 104 202 104t203 -104q40 -79 40 -267q0 -210 -55 -290z"/>
<glyph glyph-name="R" horiz-adv-x="556" unicode="R" d="M50 0v714h266q90 0 140 -47t50 -137q0 -151 -119 -176v-2q71 -9 93 -57q20 -42 22 -161q1 -62 6 -87q7 -31 26 -41v-6h-156q-16 24 -18 75l-4 137q-3 90 -85 90h-77v-302h-144zM194 608v-206h60q108 0 108 107q0 99 -100 99h-68z"/>
<glyph glyph-name="S" horiz-adv-x="519" unicode="S" d="M22 223h144v-21q0 -55 19 -80q22 -30 76 -30q36 0 61 23t25 65q0 47 -27 72t-101 50q-100 34 -141 80q-46 50 -46 136q0 102 60 157q57 53 161 53q102 0 159 -45q62 -49 62 -147v-20h-138q0 106 -78 106q-82 0 -82 -83q0 -35 14 -55q16 -23 60 -42l111 -48 q78 -34 109 -79q27 -41 27 -110q0 -219 -248 -219q-227 0 -227 208v29z"/>
<glyph glyph-name="T" d="M12 714h456v-118h-156v-596h-144v596h-156v118z" unicode="T"/>
<glyph glyph-name="U" horiz-adv-x="538" unicode="U" d="M41 714h144v-498q0 -124 84 -124t84 124v498h144v-498q0 -230 -228 -230t-228 230v498z"/>
<glyph glyph-name="V" horiz-adv-x="519" unicode="V" d="M3 714h154l101 -528h3l106 528h149l-164 -714h-185z"/>
<glyph glyph-name="W" horiz-adv-x="760" unicode="W" d="M138 0l-130 714h138l79 -528h2l84 528h138l84 -528h2l79 528h138l-130 -714h-161l-80 518h-2l-80 -518h-161z"/>
<glyph glyph-name="X" horiz-adv-x="537" unicode="X" d="M184 361l-164 353h159l92 -231l91 231h157l-166 -353l178 -361h-162l-103 242l-102 -242h-158z"/>
<glyph glyph-name="Y" horiz-adv-x="520" unicode="Y" d="M3 714h162l94 -276h2l100 276h156l-185 -433v-281h-144v281z"/>
<glyph glyph-name="Z" horiz-adv-x="481" unicode="Z" d="M24 0v105l263 491h-245v118h411v-109l-267 -487h271v-118h-433z"/>
<glyph glyph-name="bracketleft" horiz-adv-x="315" unicode="[" d="M80 -184v898h229v-100h-105v-698h105v-100h-229z"/>
<glyph glyph-name="backslash" horiz-adv-x="332" unicode="\" d="M223 -14l-226 742h112l226 -742h-112z"/>
<glyph glyph-name="bracketright" horiz-adv-x="315" unicode="]" d="M6 -184v100h105v698h-105v100h229v-898h-229z"/>
<glyph glyph-name="asciicircum" horiz-adv-x="600" unicode="^" d="M180 309h-124l188 385h112l188 -385h-124l-120 247z"/>
<glyph glyph-name="underscore" horiz-adv-x="500" unicode="_" d="M500 -125h-500v50h500v-50z"/>
<glyph glyph-name="grave" horiz-adv-x="222" unicode="`" d="M176 601h-94l-98 144h138z"/>
<glyph glyph-name="a" horiz-adv-x="481" unicode="a" d="M297 163v106q-27 -20 -59 -27q-78 -17 -78 -87q0 -75 52 -75q32 0 56 19q29 23 29 64zM169 373h-124v13q0 166 189 166q114 0 159 -46q36 -37 36 -119v-283q0 -66 17 -104h-132q-8 15 -17 56h-2q-23 -40 -56 -56q-29 -14 -81 -14q-66 0 -101 50q-29 42 -29 104 q0 74 31.5 111t104.5 57l78 21q55 15 55 63q0 66 -64 66t-64 -70v-15z"/>
<glyph glyph-name="b" horiz-adv-x="500" unicode="b" d="M46 0v714h138v-226h2q43 64 116 64q85 0 125 -67t40 -216t-40 -216t-125 -67q-79 0 -122 71h-2v-57h-132zM184 269q0 -94 14 -132q16 -45 59 -45t59 45q13 38 13 132t-13 132q-16 45 -59 45t-59 -45q-14 -38 -14 -132z"/>
<glyph glyph-name="c" horiz-adv-x="463" unicode="c" d="M437 344h-132q0 108 -62 108q-48 0 -65 -45q-14 -38 -14 -139q0 -105 14 -144q15 -44 60 -44q67 0 67 126h132q0 -220 -205 -220q-107 0 -155 61q-51 65 -51 222q0 156 61 224q53 59 157 59q94 0 143.5 -55.5t49.5 -152.5z"/>
<glyph glyph-name="d" horiz-adv-x="500" unicode="d" d="M322 0v57h-2q-43 -71 -122 -71q-85 0 -125 67t-40 216t40 216t125 67q73 0 116 -64h2v226h138v-714h-132zM171 269q0 -94 14 -132q15 -45 58 -45t59 45q14 38 14 132t-14 132q-16 45 -59 45t-58 -45q-14 -38 -14 -132z"/>
<glyph glyph-name="e" horiz-adv-x="463" unicode="e" d="M164 330h141q-2 68 -15 95q-15 33 -55 33q-71 0 -71 -107v-21zM437 248h-273v-43q0 -125 68 -125q61 0 73 101h124q-8 -195 -195 -195q-133 0 -179 94q-29 59 -29 194q0 130 37 193q50 85 177 85q113 0 159 -75q38 -62 38 -198v-31z"/>
<glyph glyph-name="f" horiz-adv-x="296" unicode="f" d="M76 0v444h-70v94h70v61q0 129 144 129q37 0 74 -3v-98q-9 1 -27 1q-53 0 -53 -43v-47h80v-94h-80v-444h-138z"/>
<glyph glyph-name="g" horiz-adv-x="500" unicode="g" d="M173 252q0 -140 69 -140q75 0 75 154q0 100 -15.5 140t-56.5 40q-44 0 -59 -43q-13 -38 -13 -151zM317 538h132v-511q0 -108 -52.5 -159.5t-171.5 -51.5q-88 0 -135.5 37.5t-47.5 106.5h132q0 -25 20.5 -40.5t46.5 -15.5q76 0 76 97v71h-2q-46 -66 -115 -66 q-84 0 -124.5 63.5t-40.5 208.5q0 121 28 184q40 90 141 90q77 0 111 -74h2v60z"/>
<glyph glyph-name="h" horiz-adv-x="500" unicode="h" d="M46 0v714h138v-231h2q39 69 131 69q137 0 137 -153v-399h-138v371q0 75 -59 75q-73 0 -73 -89v-357h-138z"/>
<glyph glyph-name="i" horiz-adv-x="240" unicode="i" d="M51 604v118h138v-118h-138zM51 0v538h138v-538h-138z"/>
<glyph glyph-name="j" horiz-adv-x="240" unicode="j" d="M51 604v118h138v-118h-138zM51 10v528h138v-575q0 -71 -32 -103q-37 -36 -126 -36q-16 0 -56 2v100q7 -2 22 -2q34 0 45 21q9 16 9 65z"/>
<glyph glyph-name="k" horiz-adv-x="500" unicode="k" d="M51 714h138v-377h2l139 201h152l-155 -212l178 -326h-152l-115 221l-49 -64v-157h-138v714z"/>
<glyph glyph-name="l" horiz-adv-x="240" unicode="l" d="M51 0v714h138v-714h-138z"/>
<glyph glyph-name="m" horiz-adv-x="758" unicode="m" d="M46 0v538h132v-55h2q49 69 136 69q101 0 124 -86h2q32 86 136 86q134 0 134 -161v-391h-138v376q0 70 -54 70q-72 0 -72 -92v-354h-138v376q0 70 -54 70q-72 0 -72 -92v-354h-138z"/>
<glyph glyph-name="n" horiz-adv-x="500" unicode="n" d="M46 0v538h132v-63h2q42 77 137 77q137 0 137 -153v-399h-138v371q0 75 -59 75q-73 0 -73 -89v-357h-138z"/>
<glyph glyph-name="o" d="M166 269q0 -97 12 -136q15 -53 62 -53q41 0 57.5 43.5t16.5 145.5t-16.5 145.5t-57.5 43.5q-47 0 -62 -53q-12 -39 -12 -136zM28 269q0 143 47 210q50 72 165 73h3q117 0 165 -71q44 -64 44 -212q0 -143 -47 -210q-50 -72 -165 -73h-3q-117 0 -165 71q-44 64 -44 212z " unicode="o"/>
<glyph glyph-name="p" horiz-adv-x="500" unicode="p" d="M46 -176v714h132v-57h2q43 71 122 71q85 0 125 -67t40 -216t-40 -216t-125 -67q-73 0 -116 64h-2v-226h-138zM184 269q0 -94 14 -132q16 -45 59 -45t59 45q13 38 13 132t-13 132q-16 45 -59 45t-59 -45q-14 -38 -14 -132z"/>
<glyph glyph-name="q" horiz-adv-x="500" unicode="q" d="M316 -176v226h-2q-43 -64 -116 -64q-85 0 -125 67t-40 216t40 216t125 67q79 0 122 -71h2v57h132v-714h-138zM316 269q0 94 -14 132q-16 45 -59 45t-58 -45q-14 -38 -14 -132t14 -132q15 -45 58 -45t59 45q14 38 14 132z"/>
<glyph glyph-name="r" horiz-adv-x="333" unicode="r" d="M46 0v538h132v-72h2q46 86 124 86q9 0 25 -2v-132q-28 2 -43 2q-42 0 -69 -21q-33 -26 -33 -76v-323h-138z"/>
<glyph glyph-name="s" horiz-adv-x="444" unicode="s" d="M23 176h124v-18q0 -78 72 -78q70 0 70 64q0 43 -50 61l-97 35q-115 41 -115 150q0 72 46 114q51 48 152 48q184 0 184 -153v-22h-124q0 81 -61 81q-28 0 -46.5 -15.5t-18.5 -42.5q0 -43 60 -63l83 -28q65 -22 92 -57.5t27 -96.5q0 -82 -55 -125.5t-145 -43.5 q-110 0 -157 47q-41 40 -41 124v19z"/>
<glyph glyph-name="t" horiz-adv-x="296" unicode="t" d="M76 538v154h138v-154h80v-94h-80v-291q0 -32 8 -44q11 -15 41 -15q13 0 31 2v-96q-60 -6 -90 -6q-79 0 -103.5 29t-24.5 113v308h-70v94h70z"/>
<glyph glyph-name="u" horiz-adv-x="500" unicode="u" d="M322 0v63h-2q-42 -77 -137 -77q-137 0 -137 153v399h138v-371q0 -75 59 -75q73 0 73 89v357h138v-538h-132z"/>
<glyph glyph-name="v" horiz-adv-x="444" unicode="v" d="M228 153l73 385h138l-135 -538h-160l-139 538h144l77 -385h2z"/>
<glyph glyph-name="w" horiz-adv-x="704" unicode="w" d="M124 0l-117 538h138l63 -382h2l67 382h150l71 -382h2l65 382h132l-116 -538h-157l-71 382h-2l-67 -382h-160z"/>
<glyph glyph-name="x" horiz-adv-x="462" unicode="x" d="M231 376l74 162h144l-140 -261l146 -277h-144l-80 176l-80 -176h-144l146 277l-140 261h144z"/>
<glyph glyph-name="y" horiz-adv-x="444" unicode="y" d="M46 -176v103q18 -3 36 -3q68 0 74 76l-151 538h144l80 -372h2l70 372h138l-130 -502q-36 -138 -73 -175t-134 -37h-56z"/>
<glyph glyph-name="z" horiz-adv-x="426" unicode="z" d="M24 0v106l215 320h-205v112h368v-106l-215 -320h215v-112h-378z"/>
<glyph glyph-name="braceleft" horiz-adv-x="315" unicode="{" d="M30 224v82q26 0 46 23.5t20 57.5v193q0 134 104 134h89v-100h-30q-39 0 -39 -72v-166q0 -44 -20 -74t-52 -36v-2q32 -6 52 -36t20 -74v-166q0 -72 39 -72h30v-100h-89q-104 0 -104 134v193q0 34 -20 57.5t-46 23.5z"/>
<glyph glyph-name="bar" horiz-adv-x="222" unicode="|" d="M49 -14v742h124v-742h-124z"/>
<glyph glyph-name="braceright" horiz-adv-x="315" unicode="}" d="M26 -184v100h30q39 0 39 72v166q0 44 20 74t52 36v2q-32 6 -52 36t-20 74v166q0 72 -39 72h-30v100h89q104 0 104 -134v-193q0 -34 20 -57.5t46 -23.5v-82q-26 0 -46 -23.5t-20 -57.5v-193q0 -134 -104 -134h-89z"/>
<glyph glyph-name="asciitilde" horiz-adv-x="600" unicode="~" d="M495 349l36 -106q-46 -86 -123 -86q-51 0 -118 34t-95 34q-27 0 -55 -25q-25 -21 -35 -43l-36 106q46 86 123 86q53 0 109 -29q75 -39 104 -39q27 0 56 25q24 21 34 43z"/>
<glyph glyph-name="nonbreakingspace" horiz-adv-x="240" unicode=" "/>
<glyph glyph-name="exclamdown" horiz-adv-x="296" unicode="¡" d="M79 406v132h138v-132h-138zM79 -176v232l19 283h100l19 -283v-232h-138z"/>
<glyph glyph-name="cent" d="M222 -102v88q-90 4 -134 58q-55 67 -55 221q0 130 35 195q44 84 154 92v76h52v-76q172 -12 173 -204h-132q0 89 -41 104v-366q41 24 41 123h132q0 -203 -173 -223v-88h-52zM222 86v366q-36 -13 -46 -79q-5 -30 -5 -102q0 -82 6 -116q11 -59 45 -69z" unicode="¢"/>
<glyph glyph-name="sterling" d="M9 306v82h67q-45 87 -45 142q0 79 53 127q57 51 161 51q214 0 218 -207h-132q0 113 -78 113q-84 0 -84 -79q0 -37 26 -90l28 -57h167v-82h-141q5 -13 5 -39q0 -82 -90 -156l4 -2q25 7 45 7q13 0 54.5 -15t59.5 -15q40 0 104 42l44 -94q-74 -48 -149 -48q-22 0 -86 18 t-96 18q-42 0 -98 -28l-41 86q117 75 117 177q0 22 -11 49h-102z" unicode="£"/>
<glyph glyph-name="currency" d="M117 347q0 -60 33.5 -94.5t89.5 -34.5t89.5 34.5t33.5 94.5t-33.5 94.5t-89.5 34.5t-89.5 -34.5t-33.5 -94.5zM61 107l-61 62l50 50q-39 59 -39 128q0 70 39 128l-50 50l61 62l51 -50q58 39 128 39t128 -39l51 50l61 -62l-50 -50q39 -58 39 -128t-39 -128l50 -50l-61 -62 l-51 51q-58 -40 -128 -40q-71 0 -128 40z" unicode="¤"/>
<glyph glyph-name="yen" d="M178 0v159h-142v82h142v43l-11 23h-131v82h92l-145 305h149l107 -269h2l112 269h144l-145 -305h92v-82h-131l-11 -23v-43h142v-82h-142v-159h-124z" unicode="¥"/>
<glyph glyph-name="brokenbar" horiz-adv-x="222" unicode="¦" d="M49 457v271h124v-271h-124zM49 -14v271h124v-271h-124z"/>
<glyph glyph-name="section" horiz-adv-x="481" unicode="§" d="M165 272l99 -54q21 -11 39 -25q47 39 47 75q0 46 -68 82l-96 51q-55 -33 -55 -75q0 -35 34 -54zM38 37h132v-15q0 -37 19.5 -58.5t50.5 -21.5q33 0 51 21q15 18 15 46q0 53 -64 84l-123 59q-106 51 -106 154q0 97 90 143q-60 45 -60 114q0 85 60 127q53 38 145 38 q190 0 190 -162h-132q0 68 -69 68q-28 0 -45 -16t-17 -41q0 -39 64 -69l119 -56q110 -52 110 -163q0 -39 -22 -80.5t-56 -61.5q54 -43 54 -124q0 -175 -204 -175q-100 0 -151 46t-51 128v15z"/>
<glyph glyph-name="dieresis" horiz-adv-x="222" unicode="¨" d="M141 610v118h112v-118h-112zM-31 610v118h112v-118h-112z"/>
<glyph glyph-name="copyright" horiz-adv-x="800" unicode="©" d="M29 357q0 154 108.5 262.5t262.5 108.5t262.5 -108.5t108.5 -262.5t-108.5 -262.5t-262.5 -108.5t-262.5 108.5t-108.5 262.5zM141 357q0 -110 74.5 -187.5t184.5 -77.5t184.5 77.5t74.5 187.5t-74.5 187.5t-184.5 77.5t-184.5 -77.5t-74.5 -187.5zM495 298h100 q-11 -72 -64 -115q-49 -41 -116 -41q-93 0 -151 64q-56 61 -56 154q0 95 55 156.5t149 61.5q70 0 118 -39q52 -42 61 -114h-96q-17 67 -88 67q-50 0 -77.5 -36.5t-27.5 -95.5q0 -56 28.5 -94t75.5 -38q36 0 60 19t29 51z"/>
<glyph glyph-name="ordfeminine" horiz-adv-x="314" unicode="ª" d="M193 478v59q-15 -11 -35 -15q-48 -10 -48 -49q0 -42 32 -42q19 0 35 12t16 35zM293 609v-172q0 -39 11 -63h-100q-3 5 -11 35q-27 -42 -94 -42q-46 0 -70 30q-19 24 -19 62q0 46 20.5 69t68.5 33l58 12q36 7 36 34q0 37 -37 37q-41 0 -41 -39v-9h-94v13q0 99 137 99 q80 0 111 -28q24 -22 24 -71z"/>
<glyph glyph-name="guillemotleft" horiz-adv-x="426" unicode="«" d="M52 208v162l149 120v-132l-79 -69l79 -69v-132zM225 208v162l149 120v-132l-79 -69l79 -69v-132z"/>
<glyph glyph-name="logicalnot" horiz-adv-x="600" unicode="¬" d="M429 98v202h-382v124h506v-326h-124z"/>
<glyph glyph-name="uni00AD" horiz-adv-x="600" unicode="­" d="M47 191v124h506v-124h-506z"/>
<glyph glyph-name="registered" horiz-adv-x="800" unicode="®" d="M141 357q0 -110 74.5 -187.5t184.5 -77.5t184.5 77.5t74.5 187.5t-74.5 187.5t-184.5 77.5t-184.5 -77.5t-74.5 -187.5zM29 357q0 154 108.5 262.5t262.5 108.5t262.5 -108.5t108.5 -262.5t-108.5 -262.5t-262.5 -108.5t-262.5 108.5t-108.5 262.5zM343 487v-99h67 q67 0 67 50q0 49 -76 49h-58zM255 157v400h156q154 0 154 -124q0 -48 -28 -76.5t-71 -34.5l99 -165h-96l-94 161h-32v-161h-88z"/>
<glyph glyph-name="macron" horiz-adv-x="222" unicode="¯" d="M-36 714h294v-76h-294v76z"/>
<glyph glyph-name="degree" horiz-adv-x="400" unicode="°" d="M128 560q0 -30 21 -51t51 -21t51 21t21 51t-21 51t-51 21t-51 -21t-21 -51zM52 560q0 62 43.5 105t104.5 43q62 0 105 -43t43 -105q0 -61 -43 -104.5t-105 -43.5q-61 0 -104.5 43.5t-43.5 104.5z"/>
<glyph glyph-name="plusminus" horiz-adv-x="600" unicode="±" d="M47 0v124h506v-124h-506zM238 398v108h124v-108h191v-124h-191v-108h-124v108h-191v124h191z"/>
<glyph glyph-name="twosuperior" horiz-adv-x="312" unicode="²" d="M312 280h-312q0 115 101 188l50 36q49 35 49 81q0 20 -12 33.5t-31 13.5q-49 0 -51 -73h-106v25q0 124 160 124q152 0 152 -108q0 -43 -14 -72t-52 -58l-57 -44q-46 -35 -53 -64h176v-82z"/>
<glyph glyph-name="threesuperior" horiz-adv-x="312" unicode="³" d="M0 416h106q2 -67 49 -67q45 0 45 53q0 63 -60 63h-28v70h28q54 0 54 53q0 19 -11.5 31.5t-29.5 12.5q-46 0 -46 -60h-100q0 136 145 136q148 0 148 -109q0 -81 -70 -95v-2q82 -14 82 -100q0 -129 -169 -129q-143 0 -143 133v10z"/>
<glyph glyph-name="acute" horiz-adv-x="222" unicode="´" d="M46 601l54 144h138l-98 -144h-94z"/>
<glyph glyph-name="mu" horiz-adv-x="500" unicode="µ" d="M316 181v357h138v-538h-132v63h-2q-42 -77 -106 -77q-18 0 -30 8v-170h-138v714h138v-371q0 -75 59 -75q73 0 73 89z"/>
<glyph glyph-name="paragraph" d="M182 -138v473q-181 0 -181 186q0 108 55 154q46 39 143 39h268v-852h-106v758h-73v-758h-106z" unicode="¶"/>
<glyph glyph-name="cedilla" horiz-adv-x="222" unicode="¸" d="M93 0h54l-38 -61q20 5 33 5q32 0 57 -19q27 -22 27 -55q0 -44 -33 -69t-93 -25q-66 0 -100 19l19 46q26 -15 69 -15q21 0 35.5 10t14.5 24q0 34 -44 34q-17 0 -34 -6l-22 20z"/>
<glyph glyph-name="onesuperior" horiz-adv-x="312" unicode="¹" d="M115 280v290h-91v70h8q96 0 109 68h86v-428h-112z"/>
<glyph glyph-name="ordmasculine" horiz-adv-x="314" unicode="º" d="M112 537q0 -54 7 -76q10 -30 38 -30q45 0 45 106q0 107 -45 107q-28 0 -38 -30q-7 -22 -7 -77zM12 537q0 87 32.5 128.5t112.5 42.5h4q80 0 112 -42q29 -39 29 -129q0 -87 -31 -126q-34 -43 -114 -44h-4q-80 0 -112 42q-29 39 -29 128z"/>
<glyph glyph-name="guillemotright" horiz-adv-x="426" unicode="»" d="M225 88v132l79 69l-79 69v132l149 -120v-162zM52 88v132l79 69l-79 69v132l149 -120v-162z"/>
<glyph glyph-name="onequarter" horiz-adv-x="721" unicode="¼" d="M91 280v290h-91v70h8q96 0 109 68h86v-428h-112zM96 -31l406 756h89l-406 -756h-89zM401 77v91l152 260h124v-269h44v-82h-44v-77h-106v77h-170zM571 159v145h-2l-86 -145h88z"/>
<glyph glyph-name="onehalf" horiz-adv-x="721" unicode="½" d="M721 0h-312q0 115 101 188l50 36q49 35 49 81q0 20 -12 33.5t-31 13.5q-49 0 -51 -73h-106v25q0 124 160 124q152 0 152 -108q0 -43 -14 -72t-52 -58l-57 -44q-46 -35 -53 -64h176v-82zM91 280v290h-91v70h8q96 0 109 68h86v-428h-112zM72 -31l406 756h89l-406 -756h-89z "/>
<glyph glyph-name="threequarters" horiz-adv-x="721" unicode="¾" d="M0 416h106q2 -67 49 -67q45 0 45 53q0 63 -60 63h-28v70h28q54 0 54 53q0 19 -11.5 31.5t-29.5 12.5q-46 0 -46 -60h-100q0 136 145 136q148 0 148 -109q0 -81 -70 -95v-2q82 -14 82 -100q0 -129 -169 -129q-143 0 -143 133v10zM135 -31l406 756h89l-406 -756h-89z M483 159h88v145h-2zM401 77v91l152 260h124v-269h44v-82h-44v-77h-106v77h-170z"/>
<glyph glyph-name="questiondown" horiz-adv-x="481" unicode="¿" d="M319 406h-138v132h138v-132zM313 45h132v-23q0 -93 -49 -148q-53 -58 -149 -58q-103 0 -158 53q-53 50 -53 140q0 85 63 156l40 45q28 31 38.5 54.5t10.5 60.5v15h124v-39q0 -87 -62 -157l-38 -43q-38 -43 -38 -106q0 -85 68 -85q71 0 71 110v25z"/>
<glyph glyph-name="Agrave" horiz-adv-x="556" unicode="À" d="M277 590l-69 -321h140l-69 321h-2zM0 0l189 714h178l189 -714h-150l-33 151h-190l-33 -151h-150zM343 756h-94l-98 144h138z"/>
<glyph glyph-name="Aacute" horiz-adv-x="556" unicode="Á" d="M277 590l-69 -321h140l-69 321h-2zM0 0l189 714h178l189 -714h-150l-33 151h-190l-33 -151h-150zM213 756l54 144h138l-98 -144h-94z"/>
<glyph glyph-name="Acircumflex" horiz-adv-x="556" unicode="Â" d="M277 590l-69 -321h140l-69 321h-2zM0 0l189 714h178l189 -714h-150l-33 151h-190l-33 -151h-150zM128 756l78 144h144l78 -144h-106l-46 85l-48 -85h-100z"/>
<glyph glyph-name="Atilde" horiz-adv-x="556" unicode="Ã" d="M277 590l-69 -321h140l-69 321h-2zM0 0l189 714h178l189 -714h-150l-33 151h-190l-33 -151h-150zM191 765h-70q17 124 93 124q27 0 43 -7l48 -21q14 -6 30 -6q13 0 20.5 12t7.5 24h72q-5 -55 -30.5 -89.5t-62.5 -34.5q-23 0 -63.5 17t-55.5 17q-25 0 -32 -36z"/>
<glyph glyph-name="Adieresis" horiz-adv-x="556" unicode="Ä" d="M277 590l-69 -321h140l-69 321h-2zM0 0l189 714h178l189 -714h-150l-33 151h-190l-33 -151h-150zM308 765v118h112v-118h-112zM136 765v118h112v-118h-112z"/>
<glyph glyph-name="Aring" horiz-adv-x="556" unicode="Å" d="M277 590l-69 -321h140l-69 321h-2zM0 0l189 714h178l189 -714h-150l-33 151h-190l-33 -151h-150zM220 847q0 -24 17 -41t41 -17t41 17t17 41t-17 41t-41 17t-41 -17t-17 -41zM164 847q0 47 33.5 80.5t80.5 33.5t80.5 -33.5t33.5 -80.5t-33.5 -80.5t-80.5 -33.5 t-80.5 33.5t-33.5 80.5z"/>
<glyph glyph-name="AE" horiz-adv-x="759" unicode="Æ" d="M234 269h120v333h-9zM-5 0l269 714h463v-118h-235v-168h220v-118h-220v-192h245v-118h-383v151h-159l-50 -151h-150z"/>
<glyph glyph-name="Ccedilla" horiz-adv-x="537" unicode="Ç" d="M214 -92l47 78q-139 6 -188 110q-38 78 -38 261q0 188 41 267q53 104 202 104q136 0 188 -88q33 -58 33 -167h-144q0 80 -19 114.5t-67 34.5q-53 0 -72 -62q-18 -57 -18 -213q0 -154 23 -208q19 -47 69 -47q44 0 65 33q25 41 25 148h144q0 -124 -36 -191 q-45 -83 -154 -95l-30 -48q20 5 33 5q32 0 57 -19q27 -22 27 -55q0 -44 -33 -69t-93 -25q-66 0 -100 19l19 46q26 -15 69 -15q21 0 35.5 10t14.5 24q0 34 -44 34q-17 0 -34 -6z"/>
<glyph glyph-name="Egrave" horiz-adv-x="481" unicode="È" d="M50 714h399v-118h-255v-168h240v-118h-240v-192h265v-118h-409v714zM318 756h-94l-98 144h138z"/>
<glyph glyph-name="Eacute" horiz-adv-x="481" unicode="É" d="M50 714h399v-118h-255v-168h240v-118h-240v-192h265v-118h-409v714zM188 756l54 144h138l-98 -144h-94z"/>
<glyph glyph-name="Ecircumflex" horiz-adv-x="481" unicode="Ê" d="M50 714h399v-118h-255v-168h240v-118h-240v-192h265v-118h-409v714zM103 756l78 144h144l78 -144h-106l-46 85l-48 -85h-100z"/>
<glyph glyph-name="Edieresis" horiz-adv-x="481" unicode="Ë" d="M50 714h399v-118h-255v-168h240v-118h-240v-192h265v-118h-409v714zM283 765v118h112v-118h-112zM111 765v118h112v-118h-112z"/>
<glyph glyph-name="Igrave" horiz-adv-x="258" unicode="Ì" d="M201 0h-144v714h144v-714zM194 756h-94l-98 144h138z"/>
<glyph glyph-name="Iacute" horiz-adv-x="258" unicode="Í" d="M201 0h-144v714h144v-714zM64 756l54 144h138l-98 -144h-94z"/>
<glyph glyph-name="Icircumflex" horiz-adv-x="258" unicode="Î" d="M201 0h-144v714h144v-714zM-21 756l78 144h144l78 -144h-106l-46 85l-48 -85h-100z"/>
<glyph glyph-name="Idieresis" horiz-adv-x="258" unicode="Ï" d="M201 0h-144v714h144v-714zM159 765v118h112v-118h-112zM-13 765v118h112v-118h-112z"/>
<glyph glyph-name="Eth" horiz-adv-x="574" unicode="Ð" d="M201 608v-187h93v-106h-93v-209h64q73 0 98 56q22 51 22 201q0 134 -20 183q-26 62 -103 62h-61zM57 0v315h-57v106h57v293h236q140 0 193 -95q43 -76 43 -252q0 -197 -51 -278q-55 -89 -194 -89h-227z"/>
<glyph glyph-name="Ntilde" horiz-adv-x="574" unicode="Ñ" d="M50 714h166l174 -489h2v489h132v-714h-164l-176 500h-2v-500h-132v714zM200 765h-70q17 124 93 124q27 0 43 -7l48 -21q14 -6 30 -6q13 0 20.5 12t7.5 24h72q-5 -55 -30.5 -89.5t-62.5 -34.5q-23 0 -63.5 17t-55.5 17q-25 0 -32 -36z"/>
<glyph glyph-name="Ograve" horiz-adv-x="556" unicode="Ò" d="M179 357q0 -152 18 -204q20 -61 81 -61t81 61q18 52 18 204q0 151 -18 204q-20 61 -81 61t-81 -61q-18 -53 -18 -204zM35 357q0 188 41 267q53 104 202 104t203 -104q40 -79 40 -267t-40 -267q-54 -104 -203 -104t-202 104q-41 79 -41 267zM343 756h-94l-98 144h138z"/>
<glyph glyph-name="Oacute" horiz-adv-x="556" unicode="Ó" d="M179 357q0 -152 18 -204q20 -61 81 -61t81 61q18 52 18 204q0 151 -18 204q-20 61 -81 61t-81 -61q-18 -53 -18 -204zM35 357q0 188 41 267q53 104 202 104t203 -104q40 -79 40 -267t-40 -267q-54 -104 -203 -104t-202 104q-41 79 -41 267zM213 756l54 144h138l-98 -144 h-94z"/>
<glyph glyph-name="Ocircumflex" horiz-adv-x="556" unicode="Ô" d="M179 357q0 -152 18 -204q20 -61 81 -61t81 61q18 52 18 204q0 151 -18 204q-20 61 -81 61t-81 -61q-18 -53 -18 -204zM35 357q0 188 41 267q53 104 202 104t203 -104q40 -79 40 -267t-40 -267q-54 -104 -203 -104t-202 104q-41 79 -41 267zM128 756l78 144h144l78 -144 h-106l-46 85l-48 -85h-100z"/>
<glyph glyph-name="Otilde" horiz-adv-x="556" unicode="Õ" d="M179 357q0 -152 18 -204q20 -61 81 -61t81 61q18 52 18 204q0 151 -18 204q-20 61 -81 61t-81 -61q-18 -53 -18 -204zM35 357q0 188 41 267q53 104 202 104t203 -104q40 -79 40 -267t-40 -267q-54 -104 -203 -104t-202 104q-41 79 -41 267zM191 765h-70q17 124 93 124 q27 0 43 -7l48 -21q14 -6 30 -6q13 0 20.5 12t7.5 24h72q-5 -55 -30.5 -89.5t-62.5 -34.5q-23 0 -63.5 17t-55.5 17q-25 0 -32 -36z"/>
<glyph glyph-name="Odieresis" horiz-adv-x="556" unicode="Ö" d="M179 357q0 -152 18 -204q20 -61 81 -61t81 61q18 52 18 204q0 151 -18 204q-20 61 -81 61t-81 -61q-18 -53 -18 -204zM35 357q0 188 41 267q53 104 202 104t203 -104q40 -79 40 -267t-40 -267q-54 -104 -203 -104t-202 104q-41 79 -41 267zM308 765v118h112v-118h-112z M136 765v118h112v-118h-112z"/>
<glyph glyph-name="multiply" horiz-adv-x="600" unicode="×" d="M59 98l156 155l-156 155l86 86l155 -156l155 156l86 -86l-156 -155l156 -155l-86 -86l-155 156l-155 -156z"/>
<glyph glyph-name="Oslash" horiz-adv-x="556" unicode="Ø" d="M83 -30l30 70q-46 43 -64 129q-14 67 -14 188q0 188 41 267q53 104 202 104q73 0 121 -24l26 61l48 -21l-30 -70q46 -43 64 -129q14 -67 14 -188q0 -188 -40 -267q-54 -104 -203 -104q-74 0 -121 24l-26 -61zM369 505l-161 -376q20 -37 70 -37q61 0 81 61q18 52 18 204 q0 102 -6 148h-2zM187 209l161 377q-22 36 -70 36q-61 0 -81 -61q-18 -53 -18 -204q0 -104 6 -148h2z"/>
<glyph glyph-name="Ugrave" horiz-adv-x="538" unicode="Ù" d="M41 714h144v-498q0 -124 84 -124t84 124v498h144v-498q0 -230 -228 -230t-228 230v498zM334 756h-94l-98 144h138z"/>
<glyph glyph-name="Uacute" horiz-adv-x="538" unicode="Ú" d="M41 714h144v-498q0 -124 84 -124t84 124v498h144v-498q0 -230 -228 -230t-228 230v498zM204 756l54 144h138l-98 -144h-94z"/>
<glyph glyph-name="Ucircumflex" horiz-adv-x="538" unicode="Û" d="M41 714h144v-498q0 -124 84 -124t84 124v498h144v-498q0 -230 -228 -230t-228 230v498zM119 756l78 144h144l78 -144h-106l-46 85l-48 -85h-100z"/>
<glyph glyph-name="Udieresis" horiz-adv-x="538" unicode="Ü" d="M41 714h144v-498q0 -124 84 -124t84 124v498h144v-498q0 -230 -228 -230t-228 230v498zM299 765v118h112v-118h-112zM127 765v118h112v-118h-112z"/>
<glyph glyph-name="Yacute" horiz-adv-x="520" unicode="Ý" d="M3 714h162l94 -276h2l100 276h156l-185 -433v-281h-144v281zM195 756l54 144h138l-98 -144h-94z"/>
<glyph glyph-name="Thorn" horiz-adv-x="519" unicode="Þ" d="M194 480v-217h64q96 0 96 107q0 110 -100 110h-60zM50 0v714h144v-128h108q102 0 153 -67q43 -56 43 -147q0 -108 -60.5 -161.5t-166.5 -53.5h-77v-157h-144z"/>
<glyph glyph-name="germandbls" horiz-adv-x="500" unicode="ß" d="M179 0h-138v527q0 104 52 152.5t160 48.5q95 0 146 -44t51 -127q0 -58 -18 -90q-20 -35 -71 -57v-2q111 -18 111 -192q0 -222 -179 -222q-46 0 -66 4v94q12 -4 21 -4q51 0 70 39q16 32 16 107q0 121 -80 121h-25v94h17q66 0 66 95q0 90 -66 90q-67 0 -67 -110v-524z"/>
<glyph glyph-name="agrave" horiz-adv-x="481" unicode="à" d="M297 163v106q-27 -20 -59 -27q-78 -17 -78 -87q0 -75 52 -75q32 0 56 19q29 23 29 64zM169 373h-124v13q0 166 189 166q114 0 159 -46q36 -37 36 -119v-283q0 -66 17 -104h-132q-8 15 -17 56h-2q-23 -40 -56 -56q-29 -14 -81 -14q-66 0 -101 50q-29 42 -29 104 q0 74 31.5 111t104.5 57l78 21q55 15 55 63q0 66 -64 66t-64 -70v-15zM306 601h-94l-98 144h138z"/>
<glyph glyph-name="aacute" horiz-adv-x="481" unicode="á" d="M297 163v106q-27 -20 -59 -27q-78 -17 -78 -87q0 -75 52 -75q32 0 56 19q29 23 29 64zM169 373h-124v13q0 166 189 166q114 0 159 -46q36 -37 36 -119v-283q0 -66 17 -104h-132q-8 15 -17 56h-2q-23 -40 -56 -56q-29 -14 -81 -14q-66 0 -101 50q-29 42 -29 104 q0 74 31.5 111t104.5 57l78 21q55 15 55 63q0 66 -64 66t-64 -70v-15zM176 601l54 144h138l-98 -144h-94z"/>
<glyph glyph-name="acircumflex" horiz-adv-x="481" unicode="â" d="M297 163v106q-27 -20 -59 -27q-78 -17 -78 -87q0 -75 52 -75q32 0 56 19q29 23 29 64zM169 373h-124v13q0 166 189 166q114 0 159 -46q36 -37 36 -119v-283q0 -66 17 -104h-132q-8 15 -17 56h-2q-23 -40 -56 -56q-29 -14 -81 -14q-66 0 -101 50q-29 42 -29 104 q0 74 31.5 111t104.5 57l78 21q55 15 55 63q0 66 -64 66t-64 -70v-15zM91 601l78 144h144l78 -144h-106l-46 85l-48 -85h-100z"/>
<glyph glyph-name="atilde" horiz-adv-x="481" unicode="ã" d="M297 163v106q-27 -20 -59 -27q-78 -17 -78 -87q0 -75 52 -75q32 0 56 19q29 23 29 64zM169 373h-124v13q0 166 189 166q114 0 159 -46q36 -37 36 -119v-283q0 -66 17 -104h-132q-8 15 -17 56h-2q-23 -40 -56 -56q-29 -14 -81 -14q-66 0 -101 50q-29 42 -29 104 q0 74 31.5 111t104.5 57l78 21q55 15 55 63q0 66 -64 66t-64 -70v-15zM154 610h-70q17 124 93 124q27 0 43 -7l48 -21q14 -6 30 -6q13 0 20.5 12t7.5 24h72q-5 -55 -30.5 -89.5t-62.5 -34.5q-23 0 -63.5 17t-55.5 17q-25 0 -32 -36z"/>
<glyph glyph-name="adieresis" horiz-adv-x="481" unicode="ä" d="M297 163v106q-27 -20 -59 -27q-78 -17 -78 -87q0 -75 52 -75q32 0 56 19q29 23 29 64zM169 373h-124v13q0 166 189 166q114 0 159 -46q36 -37 36 -119v-283q0 -66 17 -104h-132q-8 15 -17 56h-2q-23 -40 -56 -56q-29 -14 -81 -14q-66 0 -101 50q-29 42 -29 104 q0 74 31.5 111t104.5 57l78 21q55 15 55 63q0 66 -64 66t-64 -70v-15zM271 610v118h112v-118h-112zM99 610v118h112v-118h-112z"/>
<glyph glyph-name="aring" horiz-adv-x="481" unicode="å" d="M297 163v106q-27 -20 -59 -27q-78 -17 -78 -87q0 -75 52 -75q32 0 56 19q29 23 29 64zM169 373h-124v13q0 166 189 166q114 0 159 -46q36 -37 36 -119v-283q0 -66 17 -104h-132q-8 15 -17 56h-2q-23 -40 -56 -56q-29 -14 -81 -14q-66 0 -101 50q-29 42 -29 104 q0 74 31.5 111t104.5 57l78 21q55 15 55 63q0 66 -64 66t-64 -70v-15zM183 698q0 -24 17 -41t41 -17t41 17t17 41t-17 41t-41 17t-41 -17t-17 -41zM127 698q0 47 33.5 80.5t80.5 33.5t80.5 -33.5t33.5 -80.5t-33.5 -80.5t-80.5 -33.5t-80.5 33.5t-33.5 80.5z"/>
<glyph glyph-name="ae" horiz-adv-x="722" unicode="æ" d="M168 373h-124v13q0 166 189 166q55 0 86.5 -14t52.5 -50q31 64 127 64q113 0 158 -75q38 -62 38 -198v-31h-271v-43q0 -125 67 -125q60 0 72 101h124q-8 -195 -194 -195q-124 0 -162 93q-31 -57 -71 -76q-34 -17 -103 -17q-66 0 -101 50q-29 42 -29 104q0 74 31.5 111 t104.5 57l78 21q55 15 55 63q0 66 -64 66t-64 -70v-15zM424 330h139q-2 68 -15 95q-15 33 -54 33q-70 0 -70 -107v-21zM296 163v106q-27 -20 -59 -27q-78 -17 -78 -87q0 -75 52 -75q32 0 56 19q29 23 29 64z"/>
<glyph glyph-name="ccedilla" horiz-adv-x="463" unicode="ç" d="M171 -92l47 78q-100 4 -144 65q-48 66 -48 218q0 156 61 224q53 59 157 59q94 0 143.5 -55.5t49.5 -152.5h-132q0 108 -62 108q-48 0 -65 -45q-14 -38 -14 -139q0 -105 14 -144q15 -44 60 -44q67 0 67 126h132q0 -198 -164 -218l-31 -49q20 5 33 5q32 0 57 -19 q27 -22 27 -55q0 -44 -33 -69t-93 -25q-66 0 -100 19l19 46q26 -15 69 -15q21 0 35.5 10t14.5 24q0 34 -44 34q-17 0 -34 -6z"/>
<glyph glyph-name="egrave" horiz-adv-x="463" unicode="è" d="M164 330h141q-2 68 -15 95q-15 33 -55 33q-71 0 -71 -107v-21zM437 248h-273v-43q0 -125 68 -125q61 0 73 101h124q-8 -195 -195 -195q-133 0 -179 94q-29 59 -29 194q0 130 37 193q50 85 177 85q113 0 159 -75q38 -62 38 -198v-31zM297 601h-94l-98 144h138z"/>
<glyph glyph-name="eacute" horiz-adv-x="463" unicode="é" d="M164 330h141q-2 68 -15 95q-15 33 -55 33q-71 0 -71 -107v-21zM437 248h-273v-43q0 -125 68 -125q61 0 73 101h124q-8 -195 -195 -195q-133 0 -179 94q-29 59 -29 194q0 130 37 193q50 85 177 85q113 0 159 -75q38 -62 38 -198v-31zM167 601l54 144h138l-98 -144h-94z "/>
<glyph glyph-name="ecircumflex" horiz-adv-x="463" unicode="ê" d="M164 330h141q-2 68 -15 95q-15 33 -55 33q-71 0 -71 -107v-21zM437 248h-273v-43q0 -125 68 -125q61 0 73 101h124q-8 -195 -195 -195q-133 0 -179 94q-29 59 -29 194q0 130 37 193q50 85 177 85q113 0 159 -75q38 -62 38 -198v-31zM82 601l78 144h144l78 -144h-106 l-46 85l-48 -85h-100z"/>
<glyph glyph-name="edieresis" horiz-adv-x="463" unicode="ë" d="M164 330h141q-2 68 -15 95q-15 33 -55 33q-71 0 -71 -107v-21zM437 248h-273v-43q0 -125 68 -125q61 0 73 101h124q-8 -195 -195 -195q-133 0 -179 94q-29 59 -29 194q0 130 37 193q50 85 177 85q113 0 159 -75q38 -62 38 -198v-31zM262 610v118h112v-118h-112zM90 610 v118h112v-118h-112z"/>
<glyph glyph-name="igrave" horiz-adv-x="240" unicode="ì" d="M51 0v538h138v-538h-138zM185 601h-94l-98 144h138z"/>
<glyph glyph-name="iacute" horiz-adv-x="240" unicode="í" d="M51 0v538h138v-538h-138zM55 601l54 144h138l-98 -144h-94z"/>
<glyph glyph-name="icircumflex" horiz-adv-x="240" unicode="î" d="M51 0v538h138v-538h-138zM-30 601l78 144h144l78 -144h-106l-46 85l-48 -85h-100z"/>
<glyph glyph-name="idieresis" horiz-adv-x="240" unicode="ï" d="M51 0v538h138v-538h-138zM150 610v118h112v-118h-112zM-22 610v118h112v-118h-112z"/>
<glyph glyph-name="eth" d="M105 583l-39 42l76 45q-24 24 -66 64l104 61q32 -28 67 -63l75 45l43 -42l-77 -45q83 -91 122 -185q42 -104 42 -236q0 -143 -47 -210q-50 -72 -165 -73h-3q-117 0 -165 71q-44 64 -44 212q0 263 174 263q38 0 70 -26l2 2q-31 50 -92 120zM166 262q0 -94 12 -131 q15 -51 62 -51q41 0 58 43q16 40 16 139q0 94 -16.5 135t-57.5 41q-46 0 -62 -50q-12 -37 -12 -126z" unicode="ð"/>
<glyph glyph-name="ntilde" horiz-adv-x="500" unicode="ñ" d="M46 0v538h132v-63h2q42 77 137 77q137 0 137 -153v-399h-138v371q0 75 -59 75q-73 0 -73 -89v-357h-138zM163 610h-70q17 124 93 124q27 0 43 -7l48 -21q14 -6 30 -6q13 0 20.5 12t7.5 24h72q-5 -55 -30.5 -89.5t-62.5 -34.5q-23 0 -63.5 17t-55.5 17q-25 0 -32 -36z"/>
<glyph glyph-name="ograve" d="M166 269q0 -97 12 -136q15 -53 62 -53q41 0 57.5 43.5t16.5 145.5t-16.5 145.5t-57.5 43.5q-47 0 -62 -53q-12 -39 -12 -136zM28 269q0 143 47 210q50 72 165 73h3q117 0 165 -71q44 -64 44 -212q0 -143 -47 -210q-50 -72 -165 -73h-3q-117 0 -165 71q-44 64 -44 212z M305 601h-94l-98 144h138z" unicode="ò"/>
<glyph glyph-name="oacute" d="M166 269q0 -97 12 -136q15 -53 62 -53q41 0 57.5 43.5t16.5 145.5t-16.5 145.5t-57.5 43.5q-47 0 -62 -53q-12 -39 -12 -136zM28 269q0 143 47 210q50 72 165 73h3q117 0 165 -71q44 -64 44 -212q0 -143 -47 -210q-50 -72 -165 -73h-3q-117 0 -165 71q-44 64 -44 212z M175 601l54 144h138l-98 -144h-94z" unicode="ó"/>
<glyph glyph-name="ocircumflex" d="M166 269q0 -97 12 -136q15 -53 62 -53q41 0 57.5 43.5t16.5 145.5t-16.5 145.5t-57.5 43.5q-47 0 -62 -53q-12 -39 -12 -136zM28 269q0 143 47 210q50 72 165 73h3q117 0 165 -71q44 -64 44 -212q0 -143 -47 -210q-50 -72 -165 -73h-3q-117 0 -165 71q-44 64 -44 212z M90 601l78 144h144l78 -144h-106l-46 85l-48 -85h-100z" unicode="ô"/>
<glyph glyph-name="otilde" d="M166 269q0 -97 12 -136q15 -53 62 -53q41 0 57.5 43.5t16.5 145.5t-16.5 145.5t-57.5 43.5q-47 0 -62 -53q-12 -39 -12 -136zM28 269q0 143 47 210q50 72 165 73h3q117 0 165 -71q44 -64 44 -212q0 -143 -47 -210q-50 -72 -165 -73h-3q-117 0 -165 71q-44 64 -44 212z M153 610h-70q17 124 93 124q27 0 43 -7l48 -21q14 -6 30 -6q13 0 20.5 12t7.5 24h72q-5 -55 -30.5 -89.5t-62.5 -34.5q-23 0 -63.5 17t-55.5 17q-25 0 -32 -36z" unicode="õ"/>
<glyph glyph-name="odieresis" d="M166 269q0 -97 12 -136q15 -53 62 -53q41 0 57.5 43.5t16.5 145.5t-16.5 145.5t-57.5 43.5q-47 0 -62 -53q-12 -39 -12 -136zM28 269q0 143 47 210q50 72 165 73h3q117 0 165 -71q44 -64 44 -212q0 -143 -47 -210q-50 -72 -165 -73h-3q-117 0 -165 71q-44 64 -44 212z M270 610v118h112v-118h-112zM98 610v118h112v-118h-112z" unicode="ö"/>
<glyph glyph-name="divide" horiz-adv-x="600" unicode="÷" d="M203 41q0 41 28.5 69t68.5 28q41 0 69 -28t28 -69q0 -40 -28 -68.5t-69 -28.5q-40 0 -68.5 28.5t-28.5 68.5zM203 465q0 41 28.5 69t68.5 28q41 0 69 -28t28 -69q0 -40 -28 -68.5t-69 -28.5q-40 0 -68.5 28.5t-28.5 68.5zM47 191v124h506v-124h-506z"/>
<glyph glyph-name="oslash" d="M53 -35l37 70q-62 61 -62 234q0 143 47 210q50 72 165 73q69 0 109 -21l34 65l44 -23l-37 -70q62 -61 62 -234q0 -143 -47 -210q-50 -72 -165 -73q-71 0 -109 21l-34 -65zM310 351l-124 -238q16 -33 54 -33q41 0 57.5 43.5t16.5 145.5q0 36 -2 82h-2zM170 186l123 238 q-16 34 -53 34q-47 0 -62 -53q-12 -39 -12 -136q0 -59 2 -83h2z" unicode="ø"/>
<glyph glyph-name="ugrave" horiz-adv-x="500" unicode="ù" d="M322 0v63h-2q-42 -77 -137 -77q-137 0 -137 153v399h138v-371q0 -75 59 -75q73 0 73 89v357h138v-538h-132zM315 601h-94l-98 144h138z"/>
<glyph glyph-name="uacute" horiz-adv-x="500" unicode="ú" d="M322 0v63h-2q-42 -77 -137 -77q-137 0 -137 153v399h138v-371q0 -75 59 -75q73 0 73 89v357h138v-538h-132zM185 601l54 144h138l-98 -144h-94z"/>
<glyph glyph-name="ucircumflex" horiz-adv-x="500" unicode="û" d="M322 0v63h-2q-42 -77 -137 -77q-137 0 -137 153v399h138v-371q0 -75 59 -75q73 0 73 89v357h138v-538h-132zM100 601l78 144h144l78 -144h-106l-46 85l-48 -85h-100z"/>
<glyph glyph-name="udieresis" horiz-adv-x="500" unicode="ü" d="M322 0v63h-2q-42 -77 -137 -77q-137 0 -137 153v399h138v-371q0 -75 59 -75q73 0 73 89v357h138v-538h-132zM280 610v118h112v-118h-112zM108 610v118h112v-118h-112z"/>
<glyph glyph-name="yacute" horiz-adv-x="444" unicode="ý" d="M46 -176v103q18 -3 36 -3q68 0 74 76l-151 538h144l80 -372h2l70 372h138l-130 -502q-36 -138 -73 -175t-134 -37h-56zM157 601l54 144h138l-98 -144h-94z"/>
<glyph glyph-name="thorn" horiz-adv-x="500" unicode="þ" d="M46 -176v890h138v-233h2q34 71 116 71q85 0 125 -67t40 -216t-40 -216t-125 -67q-73 0 -116 64h-2v-226h-138zM184 269q0 -94 14 -132q16 -45 59 -45t59 45q13 38 13 132t-13 132q-16 45 -59 45t-59 -45q-14 -38 -14 -132z"/>
<glyph glyph-name="OE" horiz-adv-x="778" unicode="Œ" d="M179 357q0 -152 17 -204q20 -61 82 -61q60 0 77 57q13 46 13 208t-13 208q-17 57 -77 57q-62 0 -82 -61q-17 -52 -17 -204zM748 714v-118h-242v-168h227v-118h-227v-192h250v-118h-373v41h-2q-11 -25 -47.5 -40t-75.5 -15q-141 0 -190 118q-33 80 -33 261q0 167 38 251 q51 112 178 112q99 0 130 -52h2v38h365z"/>
<glyph glyph-name="oe" horiz-adv-x="741" unicode="œ" d="M439 330h141q-2 68 -15 95q-15 33 -55 33q-71 0 -71 -107v-21zM243 80q40 0 56 43.5t16 145.5t-16.5 145.5t-57.5 43.5q-47 0 -62 -53q-12 -39 -12 -136t12 -136q16 -53 64 -53zM712 248h-273v-43q0 -125 68 -125q61 0 73 101h124q-8 -195 -187 -195q-110 0 -140 79 q-14 -37 -54.5 -58t-93.5 -21q-111 0 -158 71q-42 65 -42 212q0 143 47 211q50 72 165 72q103 0 143 -75q41 75 131 75q113 0 159 -75q38 -62 38 -198v-31z"/>
<glyph glyph-name="Scaron" horiz-adv-x="519" unicode="Š" d="M22 223h144v-21q0 -55 19 -80q22 -30 76 -30q36 0 61 23t25 65q0 47 -27 72t-101 50q-100 34 -141 80q-46 50 -46 136q0 102 60 157q57 53 161 53q102 0 159 -45q62 -49 62 -147v-20h-138q0 106 -78 106q-82 0 -82 -83q0 -35 14 -55q16 -23 60 -42l111 -48 q78 -34 109 -79q27 -41 27 -110q0 -219 -248 -219q-227 0 -227 208v29zM188 756l-78 144h106l46 -85l48 85h100l-78 -144h-144z"/>
<glyph glyph-name="scaron" horiz-adv-x="444" unicode="š" d="M23 176h124v-18q0 -78 72 -78q70 0 70 64q0 43 -50 61l-97 35q-115 41 -115 150q0 72 46 114q51 48 152 48q184 0 184 -153v-22h-124q0 81 -61 81q-28 0 -46.5 -15.5t-18.5 -42.5q0 -43 60 -63l83 -28q65 -22 92 -57.5t27 -96.5q0 -82 -55 -125.5t-145 -43.5 q-110 0 -157 47q-41 40 -41 124v19zM150 601l-78 144h106l46 -85l48 85h100l-78 -144h-144z"/>
<glyph glyph-name="Ydieresis" horiz-adv-x="520" unicode="Ÿ" d="M3 714h162l94 -276h2l100 276h156l-185 -433v-281h-144v281zM290 765v118h112v-118h-112zM118 765v118h112v-118h-112z"/>
<glyph glyph-name="circumflex" horiz-adv-x="222" unicode="ˆ" d="M-39 601l78 144h144l78 -144h-106l-46 85l-48 -85h-100z"/>
<glyph glyph-name="tilde" horiz-adv-x="222" unicode="˜" d="M24 610h-70q17 124 93 124q27 0 43 -7l48 -21q14 -6 30 -6q13 0 20.5 12t7.5 24h72q-5 -55 -30.5 -89.5t-62.5 -34.5q-23 0 -63.5 17t-55.5 17q-25 0 -32 -36z"/>
<glyph glyph-name="endash" horiz-adv-x="500" unicode="–" d="M0 233v112h500v-112h-500z"/>
<glyph glyph-name="emdash" horiz-adv-x="1000" unicode="—" d="M0 233v112h1000v-112h-1000z"/>
<glyph glyph-name="quoteleft" horiz-adv-x="260" unicode="‘" d="M64 393v130q0 88 26 132q31 52 106 59v-70q-52 -9 -52 -79v-16h52v-156h-132z"/>
<glyph glyph-name="quotesinglbase" horiz-adv-x="260" unicode="‚" d="M64 156h132v-130q0 -88 -26 -132q-31 -52 -106 -59v70q52 9 52 79v16h-52v156z"/>
<glyph glyph-name="quotedblleft" horiz-adv-x="463" unicode="“" d="M68 393v130q0 88 26 132q31 52 106 59v-70q-52 -9 -52 -79v-16h52v-156h-132zM263 393v130q0 88 26 132q31 52 106 59v-70q-52 -9 -52 -79v-16h52v-156h-132z"/>
<glyph glyph-name="quotedblright" horiz-adv-x="463" unicode="”" d="M263 558v156h132v-130q0 -88 -26 -131q-31 -53 -106 -60v70q52 9 52 79v16h-52zM68 558v156h132v-130q0 -88 -26 -131q-31 -53 -106 -60v70q52 9 52 79v16h-52z"/>
<glyph glyph-name="dagger" d="M171 516v198h138v-198h168v-112h-168v-542h-138v542h-168v112h168z" unicode="†"/>
<glyph glyph-name="daggerdbl" d="M171 -138v190h-168v112h168v248h-168v112h168v190h138v-190h168v-112h-168v-248h168v-112h-168v-190h-138z" unicode="‡"/>
<glyph glyph-name="ellipsis" horiz-adv-x="1000" unicode="…" d="M767 156h132v-156h-132v156zM434 156h132v-156h-132v156zM101 156h132v-156h-132v156z"/>
<glyph glyph-name="perthousand" horiz-adv-x="1093" unicode="‰" d="M128 -31l406 756h89l-406 -756h-89zM534 181q0 -66 7 -89q9 -30 37 -30t37 30q7 23 7 89q0 60 -7 82q-9 29 -37 29t-37 -29q-7 -22 -7 -82zM428 177q0 103 29 144q32 47 121 47t122 -47q28 -41 28 -144t-28 -144q-33 -47 -122 -47t-121 47q-29 41 -29 144zM133 521 q0 -66 7 -89q9 -30 37 -30t37 30q7 23 7 89q0 60 -7 82q-9 29 -37 29t-37 -29q-7 -22 -7 -82zM27 517q0 103 29 144q32 47 121 47t122 -47q28 -41 28 -144t-28 -144q-33 -47 -122 -47t-121 47q-29 41 -29 144zM766 177q0 103 29 144q32 47 121 47t122 -47q28 -41 28 -144 t-28 -144q-33 -47 -122 -47t-121 47q-29 41 -29 144zM872 181q0 -66 7 -89q9 -30 37 -30t37 30q7 23 7 89q0 60 -7 82q-9 29 -37 29t-37 -29q-7 -22 -7 -82z"/>
<glyph glyph-name="guilsinglleft" horiz-adv-x="241" unicode="‹" d="M46 208v162l149 120v-132l-79 -69l79 -69v-132z"/>
<glyph glyph-name="guilsinglright" horiz-adv-x="241" unicode="›" d="M46 88v132l79 69l-79 69v132l149 -120v-162z"/>
<glyph glyph-name="trademark" horiz-adv-x="990" unicode="™" d="M143 300v320h-112v94h336v-94h-112v-320h-112zM842 300v284h-2l-95 -284h-100l-95 284h-2v-284h-106v414h169l83 -250h2l83 250h169v-414h-106z"/>
</font>
</defs>
</svg>
