<?xml version="1.0" encoding="UTF-8" standalone="no"?>
<!DOCTYPE svg  PUBLIC '-//W3C//DTD SVG 1.1//EN'  'http://www.w3.org/Graphics/SVG/1.1/DTD/svg11.dtd'>
<svg xmlns="http://www.w3.org/2000/svg">
<defs>
<font id="HelveticaNeueLT-Thin" horiz-adv-x="1139">
<font-face underline-position="-154" font-weight="400" descent="-410" panose-1="2 11 4 4 2 0 2 2 2 3" units-per-em="2048" unicode-range="U+0020-2212" bbox="-125 -438 2132 1898" x-height="1053" underline-thickness="102" font-family="HelveticaNeueLT" ascent="1638" cap-height="1462"/>
<missing-glyph horiz-adv-x="2048"/>
<glyph glyph-name=".notdef" horiz-adv-x="2048"/>
<glyph glyph-name=".null" horiz-adv-x="0"/>
<glyph glyph-name="nonmarkingreturn" horiz-adv-x="682"/>
<glyph glyph-name="space" horiz-adv-x="569" unicode=" "/>
<glyph glyph-name="space" horiz-adv-x="569" unicode=" "/>
<glyph glyph-name="exclam" horiz-adv-x="530" unicode="!" d="M317 0h-104v211h104v-211zM217 1462h98v-493l-24 -594h-49l-25 594v493z"/>
<glyph glyph-name="quotedbl" horiz-adv-x="645" unicode='&quot;' d="M403 993v469h78v-469h-78zM164 993v469h78v-469h-78z"/>
<glyph glyph-name="numbersign" d="M428 895l-49 -354h346l49 354h-346zM848 1413h67l-63 -451h225v-67h-235l-49 -354h227v-68h-238l-65 -473h-68l66 473h-346l-66 -473h-67l65 473h-240v68h250l49 354h-241v67h252l63 451h68l-64 -451h346z" unicode="#"/>
<glyph glyph-name="dollar" d="M528 -215v180q-227 19 -362 137q-139 119 -141 379h77q0 -399 426 -438v682l-96 22q-65 15 -127 39q-65 25 -119 64q-53 41 -84 104q-32 62 -32 154v9q0 34 12 89q8 31 22 64q13 32 35 63q45 66 137 113q95 45 252 51v100h66v-100h8q435 0 467 -451h-78q-12 201 -115 287 q-102 88 -282 88v-635l160 -39q198 -51 278 -147q72 -93 72 -218v-7q-4 -221 -158 -314q-153 -96 -352 -96v-180h-66zM528 805v614q-202 -8 -292 -94q-89 -84 -89 -211v-6q0 -70 25 -119q23 -49 64 -80q83 -61 208 -86zM594 711v-668h9q174 0 296 80q126 79 127 255 q0 227 -307 302z" unicode="$"/>
<glyph glyph-name="percent" horiz-adv-x="1593" unicode="%" d="M420 776q125 2 194 92q70 88 70 203q0 125 -66 211q-67 86 -196 88q-127 -2 -193 -88q-69 -86 -69 -211q0 -115 71 -203q68 -90 189 -92zM422 709q-156 2 -246 108q-94 102 -94 254q0 158 92 260q90 105 250 107q164 -2 250 -105q88 -102 88 -262q-2 -149 -90 -252 q-90 -108 -250 -110zM1169 43q125 2 195 92q69 88 69 203q0 125 -65 211q-68 86 -197 88q-127 -2 -192 -88q-70 -86 -70 -211q0 -115 72 -203q68 -90 188 -92zM1171 -25q-155 2 -245 109q-95 102 -95 254q0 158 93 260q90 104 249 106q164 -2 250 -104q88 -102 88 -262 q-2 -150 -90 -252q-90 -109 -250 -111zM283 -49l952 1511h82l-952 -1511h-82z"/>
<glyph glyph-name="ampersand" horiz-adv-x="1214" unicode="&amp;" d="M938 217q-143 -237 -416 -242q-186 0 -307 97q-125 92 -127 276q0 92 37 162q35 67 92 119q57 55 123 96q65 43 129 82q-72 86 -131 176q-29 47 -47 98q-21 49 -21 105q2 114 99 184q90 66 208 68q125 0 216 -64q90 -65 92 -188q0 -76 -25 -135q-29 -58 -72 -103t-96 -82 q-55 -39 -110 -80l348 -428q47 117 49 244h78q-11 -164 -74 -309l238 -293h-105zM510 750q-57 -35 -117 -72q-59 -39 -110 -86q-50 -45 -82 -105q-35 -59 -35 -139q2 -145 113 -223q106 -82 243 -82q92 0 164 37q68 33 113 78q92 100 88 123zM537 844q94 57 180 139 q41 41 65 92q25 49 25 111q-2 84 -72 135q-67 47 -158 49q-86 -2 -155 -49q-72 -51 -74 -135q0 -51 23 -99q18 -45 47 -88q33 -41 63 -77q31 -41 56 -78z"/>
<glyph glyph-name="quotesingle" horiz-adv-x="418" unicode="&apos;" d="M170 993v469h78v-469h-78z"/>
<glyph glyph-name="parenleft" horiz-adv-x="494" unicode="(" d="M467 -377h-70q-260 422 -264 922q4 512 268 952h72q-260 -442 -262 -952q0 -494 256 -922z"/>
<glyph glyph-name="parenright" horiz-adv-x="494" unicode=")" d="M27 1497h69q260 -422 264 -922q-4 -512 -268 -952h-72q261 443 263 952q0 496 -256 922z"/>
<glyph glyph-name="asterisk" horiz-adv-x="721" unicode="*" d="M330 1462h59v-266l250 84l20 -57l-251 -84l155 -209l-45 -41l-158 217l-163 -217l-50 41l166 209l-254 84l19 57l252 -84v266z"/>
<glyph glyph-name="plus" horiz-adv-x="1229" unicode="+" d="M575 555v477h78v-477h477v-78h-477v-477h-78v477h-477v78h477z"/>
<glyph glyph-name="comma" horiz-adv-x="569" unicode="," d="M205 -258v68q24 12 39 36q14 23 20 50q10 59 10 104h-43v211h105v-211q0 -82 -27 -154q-28 -73 -104 -104z"/>
<glyph glyph-name="hyphen" horiz-adv-x="721" unicode="-" d="M580 518h-439v78h439v-78z"/>
<glyph glyph-name="hyphen" horiz-adv-x="721" unicode="­" d="M580 518h-439v78h439v-78z"/>
<glyph glyph-name="period" horiz-adv-x="569" unicode="." d="M336 0h-105v211h105v-211z"/>
<glyph glyph-name="slash" horiz-adv-x="682" unicode="/" d="M57 -35h-84l652 1532h84z"/>
<glyph glyph-name="zero" d="M569 43q135 0 219 66q86 63 134 161q49 101 65 215q16 115 16 222q0 110 -16 225q-16 114 -65 215q-48 100 -134 162q-84 59 -219 61q-131 -2 -215 -61q-84 -62 -133 -162q-47 -101 -65 -215q-21 -115 -21 -225q0 -107 21 -222q18 -114 65 -215q49 -98 133 -161 q84 -66 215 -66zM569 -25q-297 9 -407 240q-58 107 -80 236q-25 129 -25 256v19q0 259 105 476q57 107 157 172q101 64 250 64q154 0 254 -64q101 -65 158 -172q57 -106 80 -235q20 -129 20 -260q0 -127 -20 -256q-23 -129 -80 -236q-111 -231 -412 -240z" unicode="0"/>
<glyph glyph-name="one" d="M678 1413v-1413h-78v1261q-158 -159 -379 -180v68q254 43 387 264h70z" unicode="1"/>
<glyph glyph-name="two" d="M192 78h844v-78h-942q6 100 47 180q39 80 99 144q127 124 286 223q160 100 283 217q123 115 127 289q-2 147 -105 231q-100 84 -243 86q-193 -2 -287 -125q-94 -121 -94 -309h-78q29 502 446 502q187 0 312 -95q125 -96 127 -292q-2 -183 -121 -310q-117 -129 -277 -229 q-157 -98 -280 -201q-125 -102 -144 -233z" unicode="2"/>
<glyph glyph-name="three" d="M74 467h78q4 -416 411 -424q164 0 283 90t123 258q-4 199 -150 273q-67 36 -151 49q-50 7 -103 7q-35 0 -71 -3v67h21q68 0 136 11q78 12 144 45q137 61 141 241q-4 150 -121 219q-115 70 -252 70q-184 -2 -276 -113q-92 -110 -101 -290h-77q4 213 124 342 q119 127 330 129q178 0 311 -82q136 -84 140 -275q-2 -127 -74 -215q-76 -88 -203 -108v-4q146 -19 228 -117q81 -98 81 -246q-4 -207 -143 -311q-137 -105 -340 -105q-489 7 -489 492z" unicode="3"/>
<glyph glyph-name="four" d="M747 428v879h-4l-606 -879h610zM747 1413h78v-985h238v-68h-238v-360h-78v360h-688v78z" unicode="4"/>
<glyph glyph-name="five" d="M119 682l147 731h715v-68h-653l-121 -563l4 -4q131 170 350 170q217 -2 346 -133q131 -133 133 -348q-2 -213 -133 -350q-129 -140 -346 -142q-209 2 -350 123q-135 114 -135 317v17h78q2 -176 118 -280q115 -109 289 -109q184 2 293 127q106 119 108 297 q-2 176 -112 295q-111 117 -289 119q-233 0 -362 -199h-80z" unicode="5"/>
<glyph glyph-name="six" d="M1038 1065h-78q-22 139 -116 221t-238 84q-143 -2 -231 -74q-90 -71 -135 -188q-45 -113 -60 -240q-16 -125 -16 -233l4 -4q49 139 164 221q114 82 258 82q213 -2 342 -137q129 -133 131 -346q-2 -207 -133 -338q-129 -136 -340 -138q-289 7 -398 203q-106 189 -106 449 v10q0 135 23 274q20 140 75 258q58 119 160 195q100 72 262 74q180 0 297 -97q115 -96 135 -276zM590 43q174 2 284 121q109 117 111 287q-2 172 -111 292q-108 121 -284 123q-178 -2 -285 -121q-113 -118 -115 -294q2 -179 119 -289q111 -117 281 -119z" unicode="6"/>
<glyph glyph-name="seven" d="M115 1345v68h911v-78q-217 -225 -385 -524t-223 -811h-90q16 301 141 631q127 327 479 714h-833z" unicode="7"/>
<glyph glyph-name="eight" d="M928 1083q-2 160 -109 226q-99 61 -241 61h-9h-9q-137 0 -238 -61q-109 -66 -111 -226q2 -149 113 -215q104 -65 245 -65q144 0 250 65q107 66 109 215zM133 1083q4 199 137 279q126 76 291 76h8h9q167 0 292 -76q131 -80 135 -279q0 -247 -260 -309v-4q308 -49 314 -365 q-2 -217 -142 -323q-139 -107 -348 -107q-207 0 -344 107q-143 106 -145 323q6 316 313 365v4q-260 62 -260 309zM981 405q-2 177 -121 254q-119 76 -291 76q-170 0 -286 -76q-123 -77 -125 -254q2 -186 125 -274q118 -88 286 -88q170 0 289 88q121 88 123 274z" unicode="8"/>
<glyph glyph-name="nine" d="M113 348h77q27 -137 121 -219q94 -86 234 -86q145 2 235 80q88 74 133 186q45 113 62 236q12 123 12 217l-4 4q-43 -121 -143 -201q-103 -84 -269 -86q-215 2 -344 137q-131 131 -133 346q2 213 137 342q131 132 340 134q84 0 172 -21q86 -27 158 -96q76 -70 119 -201 q45 -133 45 -344q0 -131 -19 -268q-20 -141 -75 -260q-54 -119 -158 -195q-102 -76 -268 -78q-176 2 -293 99q-115 96 -139 274zM571 547q179 2 289 123q109 116 111 292q-2 175 -113 289q-111 117 -287 119q-172 -2 -284 -119q-113 -114 -115 -289q2 -172 115 -290 q112 -123 284 -125z" unicode="9"/>
<glyph glyph-name="colon" horiz-adv-x="569" unicode=":" d="M336 0h-105v211h105v-211zM231 1053h105v-211h-105v211z"/>
<glyph glyph-name="semicolon" horiz-adv-x="569" unicode=";" d="M231 1053h105v-211h-105v211zM205 -258v68q24 12 39 36q14 23 20 50q10 59 10 104h-43v211h105v-211q0 -82 -27 -154q-28 -73 -104 -104z"/>
<glyph glyph-name="less" horiz-adv-x="1229" unicode="&lt;" d="M1135 1053v-86l-973 -447l973 -450v-86l-1041 483v106z"/>
<glyph glyph-name="equal" horiz-adv-x="1229" unicode="=" d="M1130 358v-77h-1032v77h1032zM1130 756v-78h-1032v78h1032z"/>
<glyph glyph-name="greater" horiz-adv-x="1229" unicode="&gt;" d="M94 -16v86l973 446l-973 451v86l1041 -484v-106z"/>
<glyph glyph-name="question" horiz-adv-x="1063" unicode="?" d="M473 0v211h104v-211h-104zM166 1010h-78q0 221 119 354q115 131 336 133q168 0 282 -88q117 -92 119 -279q0 -63 -14 -112q-17 -51 -41 -92q-25 -39 -58 -74q-32 -37 -69 -70q-33 -26 -68 -61q-35 -37 -65 -82q-29 -45 -47 -111q-21 -65 -21 -157h-78q0 159 54 258 q51 94 127 161q79 70 141 152q59 82 61 188q-2 152 -100 222q-96 67 -229 67q-185 -2 -277 -117q-94 -114 -94 -292z"/>
<glyph glyph-name="at" horiz-adv-x="1638" unicode="@" d="M1247 1147l-196 -606q-11 -31 -21 -66q-12 -35 -12 -57q0 -31 24 -49q23 -21 56 -21q71 0 139 49q65 47 117 125q108 162 112 344q-4 262 -190 412q-184 149 -422 151q-287 -4 -479 -208q-199 -201 -203 -498q4 -305 215 -496q205 -192 471 -194q358 6 563 311h90 q-223 -371 -653 -379q-332 4 -545 227q-217 218 -219 545q4 326 225 539q215 217 531 221q299 -2 493 -178q197 -174 201 -459q-4 -237 -154 -409q-145 -177 -315 -181q-53 0 -92 37t-43 109h-4q-103 -146 -275 -146q-118 2 -188 95q-74 86 -74 212q0 111 39 220 q35 106 99 194q131 191 346 197q98 -2 157 -56q60 -55 72 -131h4l47 146h84zM870 1120q-86 0 -157 -51q-72 -51 -125 -133q-109 -172 -111 -348q0 -115 64 -180q57 -70 147 -70q64 0 125 47q63 45 113 115q129 190 133 379q0 30 -4 71q-6 41 -25 80q-18 39 -55 64 q-39 26 -105 26z"/>
<glyph glyph-name="A" horiz-adv-x="1214" unicode="A" d="M287 547h643l-314 827h-4zM563 1462h98l578 -1462h-96l-185 469h-700l-186 -469h-97z"/>
<glyph glyph-name="B" horiz-adv-x="1290" unicode="B" d="M219 1384v-585h496q368 8 370 301q-2 157 -110 223q-109 61 -260 61h-496zM129 0v1462h586q133 0 221 -31q90 -32 141 -86q55 -53 78 -120q20 -70 20 -142q-2 -118 -77 -204q-76 -89 -207 -107l4 -4q4 1 10 1q20 0 60 -11q51 -15 110 -56q62 -38 107 -108q41 -74 43 -184 q-2 -201 -140 -304q-137 -106 -370 -106h-586zM219 721v-643h496q411 2 420 332q0 94 -35 155q-37 62 -101 94q-63 37 -135 52q-74 10 -149 10h-496z"/>
<glyph glyph-name="C" horiz-adv-x="1442" unicode="C" d="M1358 1026h-90q-33 186 -170 289q-140 102 -328 104q-289 -4 -444 -203q-162 -194 -162 -485q0 -287 162 -483q155 -201 444 -205q219 4 362 162q144 155 160 364h90q-28 -266 -196 -430q-168 -170 -416 -174q-164 2 -293 62q-129 59 -219 163q-182 213 -184 541 q2 332 184 545q180 217 512 221q195 -2 313 -70q117 -67 176 -157q60 -88 80 -160q21 -72 19 -84z"/>
<glyph glyph-name="D" horiz-adv-x="1366" unicode="D" d="M129 0v1462h479q387 -6 537 -223q139 -209 139 -490v-16q0 -317 -162 -520q-166 -211 -518 -213h-475zM219 1384v-1306h393h12q210 0 384 139q180 145 186 516q-2 223 -62 356q-61 132 -155 195q-94 66 -195 84q-102 16 -188 16h-375z"/>
<glyph glyph-name="E" horiz-adv-x="1147" unicode="E" d="M219 78h903v-78h-993v1462h983v-78h-893v-585h840v-78h-840v-643z"/>
<glyph glyph-name="F" horiz-adv-x="1053" unicode="F" d="M965 721h-746v-721h-90v1462h917v-78h-827v-585h746v-78z"/>
<glyph glyph-name="G" horiz-adv-x="1517" unicode="G" d="M782 717h617v-717h-78v311h-4q-56 -162 -205 -252q-152 -92 -348 -94q-166 2 -293 62q-129 59 -217 161q-178 213 -178 535q0 321 182 543q178 225 508 231q231 -2 399 -127q168 -127 209 -360h-86q-110 401 -520 409q-295 -4 -446 -211q-156 -203 -156 -485 q0 -287 151 -479q150 -197 451 -201q266 2 414 164q139 154 139 404v28h-539v78z"/>
<glyph glyph-name="H" horiz-adv-x="1372" unicode="H" d="M1153 721h-934v-721h-90v1462h90v-663h934v663h90v-1462h-90v721z"/>
<glyph glyph-name="I" horiz-adv-x="348" unicode="I" d="M129 0v1462h90v-1462h-90z"/>
<glyph glyph-name="J" horiz-adv-x="985" unicode="J" d="M41 465h90q-1 -27 -1 -53q0 -52 5 -103q8 -76 39 -135q33 -59 98 -94q66 -37 172 -37q127 0 197 43q66 39 92 104q27 66 31 144q2 76 2 151v977h90v-1007q0 -66 -4 -148q-8 -82 -43 -160q-35 -77 -117 -129q-84 -51 -237 -53q-146 2 -230 49t-123 121q-39 76 -49 162 q-12 77 -12 148v20z"/>
<glyph glyph-name="K" horiz-adv-x="1255" unicode="K" d="M129 0v1462h90v-842l920 842h116l-667 -608l708 -854h-112l-662 793l-303 -277v-516h-90z"/>
<glyph glyph-name="L" horiz-adv-x="1024" unicode="L" d="M129 0v1462h90v-1384h830v-78h-920z"/>
<glyph glyph-name="M" horiz-adv-x="1657" unicode="M" d="M129 0v1462h129l571 -1362h4l566 1362h129v-1462h-90v1352h-5l-557 -1352h-90l-563 1352h-4v-1352h-90z"/>
<glyph glyph-name="N" horiz-adv-x="1388" unicode="N" d="M129 0v1462h113l923 -1341h4v1341h90v-1462h-106l-930 1352h-4v-1352h-90z"/>
<glyph glyph-name="O" horiz-adv-x="1517" unicode="O" d="M154 731q0 -287 161 -483q156 -201 445 -205q289 4 446 205q156 196 158 483q-2 291 -158 485q-157 199 -446 203q-289 -4 -445 -203q-161 -194 -161 -485zM1454 731q-2 -328 -182 -541q-88 -104 -217 -163q-129 -60 -295 -62q-164 2 -293 62q-129 59 -219 163 q-182 213 -185 541q3 332 185 545q180 217 512 221q332 -4 512 -221q180 -213 182 -545z"/>
<glyph glyph-name="P" horiz-adv-x="1210" unicode="P" d="M129 0v1462h623q65 0 139 -12q71 -17 137 -60q68 -43 109 -124q41 -82 41 -213q-7 -398 -459 -402h-500v-651h-90zM219 1384v-655h514q100 0 170 33q68 28 107 76q43 47 61 104q16 57 16 113q0 45 -10 100q-14 53 -49 106q-35 54 -102 89q-70 34 -181 34h-526z"/>
<glyph glyph-name="Q" horiz-adv-x="1517" unicode="Q" d="M1173 98q-165 -131 -413 -133q-164 2 -293 62q-129 59 -219 163q-182 213 -185 541q3 332 185 545q180 217 512 221q332 -4 512 -221q180 -213 182 -545q-2 -366 -219 -579l227 -164l-47 -64zM1163 203q199 202 201 528q-2 291 -158 485q-157 199 -446 203 q-289 -4 -445 -203q-161 -194 -161 -485q0 -287 161 -483q156 -201 445 -205q202 0 342 109l-221 157l47 64z"/>
<glyph glyph-name="R" horiz-adv-x="1290" unicode="R" d="M129 0v1462h610h9q193 0 321 -82q131 -86 133 -295q-6 -309 -313 -374v-4q82 -11 137 -35q51 -29 82 -72q61 -90 65 -207q9 -117 11 -223q0 -109 39 -170h-101q-8 20 -14 45q-6 21 -10 45q-9 47 -9 100q1 28 1 55q0 83 -7 165q-4 55 -22 102q-21 47 -60 80 q-36 35 -100 55q-63 19 -162 19h-520v-666h-90zM219 743h520q164 0 269 82q102 80 104 254q-2 166 -111 238q-108 67 -262 67h-520v-641z"/>
<glyph glyph-name="S" horiz-adv-x="1290" unicode="S" d="M1173 1044h-90q-8 189 -135 283q-129 92 -334 92h-8q-129 0 -254 -63q-59 -35 -98 -97q-41 -59 -41 -151q0 -84 45 -139q41 -58 113 -90q71 -33 159 -54q43 -12 90 -20q44 -10 91 -23q96 -16 186 -41q86 -26 158 -69q71 -43 114 -113q41 -72 41 -182q-6 -225 -172 -318 q-162 -94 -342 -94q-262 0 -436 119q-176 121 -180 399h90v-12q0 -226 149 -326q153 -102 369 -102h8q70 0 144 18q71 17 135 56q65 39 106 102q39 64 39 158t-41 153q-43 58 -114 95q-72 36 -158 57q-90 20 -187 37q-47 12 -90 24q-47 11 -90 23q-88 24 -159 63 q-72 43 -113 109q-45 67 -45 170q4 211 160 301q151 88 331 88q236 0 391 -104q154 -109 168 -349z"/>
<glyph glyph-name="T" horiz-adv-x="1063" unicode="T" d="M485 1384h-514v78h1121v-78h-517v-1384h-90v1384z"/>
<glyph glyph-name="U" horiz-adv-x="1376" unicode="U" d="M129 1462h90v-876q0 -66 14 -158q15 -90 58 -178q45 -88 139 -146q92 -59 248 -61q266 2 377 147q102 141 102 387v9v876h90v-876v-9q0 -261 -119 -430q-127 -178 -450 -182q-191 2 -303 70q-113 67 -166 168q-51 100 -66 205q-14 92 -14 161v17v876z"/>
<glyph glyph-name="V" d="M66 1462l501 -1384h4l506 1384h90l-547 -1462h-104l-545 1462h95z" unicode="V"/>
<glyph glyph-name="W" horiz-adv-x="1821" unicode="W" d="M410 0l-422 1462h92l381 -1366h4l387 1366h113l393 -1366h4l375 1366h96l-420 -1462h-102l-402 1384h-4l-395 -1384h-100z"/>
<glyph glyph-name="X" d="M514 752l-512 710h104l463 -643l473 643h103l-516 -710l544 -752h-108l-496 684l-497 -684h-107z" unicode="X"/>
<glyph glyph-name="Y" horiz-adv-x="1175" unicode="Y" d="M588 688l530 774h100l-587 -850v-612h-90v612l-584 850h102z"/>
<glyph glyph-name="Z" horiz-adv-x="1100" unicode="Z" d="M57 1384v78h1026v-78l-991 -1306h1010v-78h-1104v78l987 1306h-928z"/>
<glyph glyph-name="bracketleft" horiz-adv-x="494" unicode="[" d="M473 1429h-203v-1738h203v-68h-281v1874h281v-68z"/>
<glyph glyph-name="backslash" horiz-adv-x="682" unicode="\" d="M709 -35h-84l-652 1532h84z"/>
<glyph glyph-name="bracketright" horiz-adv-x="494" unicode="]" d="M20 -309h203v1738h-203v68h281v-1874h-281v68z"/>
<glyph glyph-name="asciicircum" horiz-adv-x="1229" unicode="^" d="M1149 485h-86l-447 860l-450 -860h-86l483 928h107z"/>
<glyph glyph-name="underscore" horiz-adv-x="1024" unicode="_" d="M1024 -256h-1024v102h1024v-102z"/>
<glyph glyph-name="grave" horiz-adv-x="342" unicode="`" d="M289 1210h-76l-274 287h104z"/>
<glyph glyph-name="a" horiz-adv-x="1024" unicode="a" d="M891 803v-608v-14q0 -40 10 -72q10 -41 59 -41q21 0 58 6v-66q-33 -8 -64 -8q-90 0 -114 47q-27 38 -27 99v8v55h-4q-37 -94 -137 -162q-103 -70 -254 -72q-152 0 -250 68q-100 66 -102 229q0 93 36 154q35 57 93 90q59 35 127 49q34 8 67 15q33 4 64 4q251 14 313 55 q35 25 43 63q6 37 6 101q0 20 -10 55q-12 33 -45 68q-31 34 -88 61q-58 23 -150 23q-295 -2 -323 -281h-78q22 348 401 348h10q138 0 244 -55q113 -60 115 -219zM813 598q-23 -25 -63 -37q-39 -14 -93 -20q-108 -13 -225 -25q-287 -18 -289 -244q0 -98 72 -161 q68 -66 205 -68q135 0 213 51q80 45 119 109q38 63 51 121q10 57 10 77v197z"/>
<glyph glyph-name="b" d="M133 0v1462h78v-633h4q49 125 160 187q110 61 239 61q234 -2 346 -151q111 -150 111 -375q-2 -186 -49 -299q-51 -115 -123 -176q-74 -60 -149 -80q-78 -21 -136 -21q-100 2 -174 35q-73 33 -123 76q-92 98 -102 150h-4v-236h-78zM614 43q105 0 179 47q71 45 116 117 q84 153 84 344q0 182 -94 317q-94 137 -285 142q-204 -2 -303 -129q-98 -127 -98 -330v-8q0 -196 94 -342q94 -154 307 -158z" unicode="b"/>
<glyph glyph-name="c" horiz-adv-x="1063" unicode="c" d="M985 727h-78q-12 141 -110 213q-99 70 -246 70q-197 -5 -299 -146q-107 -139 -107 -327q0 -215 103 -353q100 -139 303 -141q149 2 248 92q98 88 118 236h78q-26 -189 -147 -291q-123 -103 -297 -105q-254 5 -369 172q-114 164 -114 390q0 227 124 380q125 156 359 160 q176 0 295 -84q121 -86 139 -266z"/>
<glyph glyph-name="d" d="M928 0v225h-4q-125 -250 -404 -250q-235 5 -344 166q-110 154 -110 371v12q0 240 116 395q117 156 352 158q134 0 240 -65q53 -33 92 -82t58 -113h4v645h77v-1462h-77zM537 43q200 4 294 152q95 141 95 329q0 193 -93 336q-96 145 -299 150q-206 -5 -298 -146 q-93 -138 -93 -332v-8q0 -192 97 -332q94 -145 297 -149z" unicode="d"/>
<glyph glyph-name="e" horiz-adv-x="1063" unicode="e" d="M145 584h772q-4 172 -102 297q-100 124 -283 129q-176 -5 -274 -134t-113 -292zM995 516h-850v-8q0 -185 97 -320q96 -143 290 -145q310 4 377 313h78q-70 -376 -455 -381q-231 5 -348 158q-116 149 -116 368v7v19q0 215 112 376q117 170 352 174q248 -4 363 -166 q101 -143 101 -347q0 -24 -1 -48z"/>
<glyph glyph-name="f" horiz-adv-x="494" unicode="f" d="M188 985h-188v68h188v217q0 110 70 161q64 48 162 48q47 0 92 -11v-67q-45 10 -92 10q-66 0 -107 -29q-47 -30 -47 -118v-211h219v-68h-219v-985h-78v985z"/>
<glyph glyph-name="g" horiz-adv-x="1100" unicode="g" d="M907 1053h78v-998q0 -32 -6 -106q-8 -74 -49 -156t-135 -137q-95 -57 -265 -57q-172 0 -284 73q-115 76 -127 254h78q16 -137 110 -198q92 -62 225 -62q138 2 215 51q78 45 113 109q35 68 43 127q4 57 4 84v242h-4q-113 -238 -381 -240q-229 2 -342 151 q-112 146 -112 369q0 217 118 365q115 149 336 153q127 0 232 -61q104 -62 149 -183h4v220zM522 1010q-190 -5 -282 -140q-95 -135 -95 -311q0 -188 97 -317q96 -133 280 -136q195 3 289 140q94 129 94 313t-94 315t-289 136z"/>
<glyph glyph-name="h" horiz-adv-x="1063" unicode="h" d="M115 1462h77v-635h5q43 121 147 187q104 63 229 63q140 -2 217 -47q78 -47 111 -117q35 -69 43 -139q4 -72 4 -123v-651h-78v666q0 43 -4 102q-8 57 -37 113q-26 57 -88 92q-63 35 -170 37q-176 -2 -276 -123q-103 -121 -103 -318v-569h-77v1462z"/>
<glyph glyph-name="i" horiz-adv-x="344" unicode="i" d="M211 1251h-78v211h78v-211zM211 0h-78v1053h78v-1053z"/>
<glyph glyph-name="j" horiz-adv-x="344" unicode="j" d="M211 1251h-78v211h78v-211zM133 1053h78v-1166q0 -51 -6 -98q-8 -49 -33 -86q-43 -78 -176 -80q-33 0 -66 2v68q19 -4 52 -4q81 0 118 43q33 45 33 162v1159z"/>
<glyph glyph-name="k" horiz-adv-x="948" unicode="k" d="M119 0v1462h78v-968l649 559h112l-460 -394l493 -659h-106l-449 600l-239 -203v-397h-78z"/>
<glyph glyph-name="l" horiz-adv-x="344" unicode="l" d="M133 1462h78v-1462h-78v1462z"/>
<glyph glyph-name="m" horiz-adv-x="1630" unicode="m" d="M117 0v1053h78v-215h4q26 104 118 170q93 67 211 69q76 0 133 -18q56 -19 95 -51q75 -68 90 -154h4q86 221 334 223q147 0 237 -84q90 -88 92 -274v-719h-77v721q0 100 -29 162q-29 57 -74 84q-41 28 -82 36q-41 7 -67 7q-144 0 -236 -99q-94 -98 -94 -288v-623h-78v721 q0 100 -29 160q-28 57 -69 84q-41 30 -80 38q-41 7 -70 7q-118 0 -221 -91q-108 -94 -112 -296v-623h-78z"/>
<glyph glyph-name="n" horiz-adv-x="1063" unicode="n" d="M115 0v1053h77v-226h5q43 121 147 187q104 63 229 63q140 -2 217 -47q78 -47 111 -117q35 -69 43 -139q4 -72 4 -123v-651h-78v666q0 43 -4 102q-8 57 -37 113q-26 57 -88 92q-63 35 -170 37q-176 -2 -276 -123q-103 -121 -103 -318v-569h-77z"/>
<glyph glyph-name="o" horiz-adv-x="1100" unicode="o" d="M143 526q0 -194 107 -334q102 -145 299 -149q201 4 303 149q102 140 102 334q0 197 -102 338t-303 146q-197 -5 -299 -146q-107 -141 -107 -338zM66 526q0 232 126 389q125 158 357 162q235 -4 358 -162q125 -157 125 -389q0 -229 -125 -387q-123 -159 -358 -164 q-232 5 -357 164q-126 158 -126 387z"/>
<glyph glyph-name="p" d="M211 1053v-242h4q25 88 119 174q92 88 264 92q242 -4 358 -164q115 -157 115 -389q0 -243 -115 -393q-116 -154 -358 -156q-131 0 -231 60q-103 59 -152 184h-4v-596h-78v1430h78zM598 43q205 2 303 143q92 140 92 338q0 189 -90 334q-94 147 -305 152q-207 -5 -297 -148 q-88 -140 -88 -330v-8v-9q0 -186 82 -323q86 -145 303 -149z" unicode="p"/>
<glyph glyph-name="q" d="M928 -377v613h-4q-43 -125 -150 -191q-106 -68 -240 -70q-235 5 -352 162q-116 154 -116 391v12q0 218 110 373q109 160 344 164q279 0 404 -250h4v226h77v-1430h-77zM534 43q203 4 299 152q93 143 93 333q0 189 -95 332q-94 145 -294 150q-203 -5 -297 -146 q-97 -141 -97 -336v-8q0 -191 93 -328q92 -145 298 -149z" unicode="q"/>
<glyph glyph-name="r" horiz-adv-x="569" unicode="r" d="M192 1053v-234h7q34 107 147 176q105 64 240 64h16v-78q-21 3 -43 3q-45 0 -96 -13q-78 -23 -152 -92q-57 -56 -84 -121q-28 -66 -35 -183v-575h-77v1053h77z"/>
<glyph glyph-name="s" horiz-adv-x="985" unicode="s" d="M74 350h78q12 -145 108 -225q96 -82 240 -82q53 0 112 12q58 8 107 33q51 25 82 70q32 43 32 108q0 68 -28 111q-31 43 -84 65q-49 25 -115 39q-65 15 -133 27q-68 14 -131 35q-63 18 -117 49q-53 33 -82 84q-32 51 -32 131t36 133q33 51 89 82q112 55 246 55h9 q173 0 281 -76q107 -79 109 -260h-78q-2 144 -88 207q-88 62 -224 62q-112 0 -204 -43q-43 -25 -70 -62q-29 -39 -29 -98q0 -62 33 -100q29 -39 80 -64q25 -12 55 -20q27 -9 58 -19q32 -6 63 -12q31 -8 62 -17q161 -22 266 -86q49 -32 78 -86q28 -55 28 -137t-35 -137 q-36 -57 -100 -92q-59 -33 -131 -47q-74 -15 -145 -15q-183 0 -299 97q-117 94 -127 278z"/>
<glyph glyph-name="t" horiz-adv-x="530" unicode="t" d="M502 1053v-68h-230v-735q0 -123 60 -156q47 -27 131 -27q18 0 37 1v-68q-20 -1 -39 -1q-39 0 -76 5q-55 6 -100 31q-43 24 -68 76q-22 46 -22 121v18v735h-195v68h195v327h77v-327h230z"/>
<glyph glyph-name="u" horiz-adv-x="1063" unicode="u" d="M948 1053v-1053h-78v225h-4q-43 -116 -145 -182q-105 -66 -232 -68q-137 2 -213 52q-77 45 -112 114q-33 70 -41 142q-8 69 -8 118v652h77v-666q0 -41 9 -98q8 -56 35 -113q30 -57 90 -92q59 -41 165 -41q181 2 279 125q100 119 100 315v570h78z"/>
<glyph glyph-name="v" horiz-adv-x="909" unicode="v" d="M913 1053l-397 -1053h-96l-424 1053h90l381 -963h4l356 963h86z"/>
<glyph glyph-name="w" horiz-adv-x="1442" unicode="w" d="M80 1053l297 -963h4l287 963h104l289 -963h4l295 963h86l-338 -1053h-96l-289 954h-4l-291 -954h-98l-334 1053h84z"/>
<glyph glyph-name="x" horiz-adv-x="909" unicode="x" d="M-12 0l413 553l-385 500h109l330 -441l331 441h101l-381 -500l416 -553h-107l-360 494l-369 -494h-98z"/>
<glyph glyph-name="y" horiz-adv-x="909" unicode="y" d="M428 6l-440 1047h92l391 -961l360 961h88l-450 -1166q-29 -77 -59 -133q-31 -55 -64 -84q-70 -47 -222 -47h-24v68q82 0 133 14q48 14 86 53q41 43 109 248z"/>
<glyph glyph-name="z" horiz-adv-x="872" unicode="z" d="M113 68h741v-68h-836v74l707 911h-651v68h747v-74z"/>
<glyph glyph-name="braceleft" horiz-adv-x="682" unicode="{" d="M600 1497v-68h-98q-60 0 -84 -45q-23 -51 -23 -166v-321q0 -100 -16 -162q-19 -63 -43 -100q-25 -33 -47 -47q-25 -17 -37 -23q12 -8 37 -22q22 -17 47 -54q24 -34 43 -98q16 -63 16 -168v-321q0 -115 23 -162q24 -49 84 -49h98v-68h-102q-86 0 -133 53q-48 54 -48 189 v323q0 131 -28 228q-31 96 -119 104v78q45 4 76 33q28 28 43 73q18 48 24 107q4 57 4 119v325q0 140 48 193q45 49 127 49h6h102z"/>
<glyph glyph-name="bar" horiz-adv-x="455" unicode="|" d="M188 -438v2048h78v-2048h-78z"/>
<glyph glyph-name="braceright" horiz-adv-x="682" unicode="}" d="M82 -377v68h98q64 0 86 49q21 47 21 162v321q0 105 20 168q19 64 43 98q27 37 49 54q23 14 31 22q-8 6 -31 23q-22 14 -49 47q-24 37 -43 100q-20 62 -20 162v321q0 115 -21 166q-22 45 -86 45h-98v68h102h6q81 0 127 -49q48 -53 48 -193v-325v-21q0 -114 30 -205 q29 -98 117 -106v-78q-43 0 -72 -29q-30 -28 -45 -75q-30 -89 -30 -206v-22v-323q0 -135 -48 -189q-47 -53 -133 -53h-102z"/>
<glyph glyph-name="asciitilde" horiz-adv-x="1229" unicode="~" d="M1024 639l57 -57q-18 -31 -43 -60q-24 -31 -55 -57q-61 -55 -150 -57q-104 2 -233 77q-35 21 -90 41q-55 21 -98 21q-88 -2 -136 -51q-47 -50 -67 -103l-60 62q48 82 103 125q57 45 147 45q60 0 111 -17q51 -18 117 -49q43 -20 94 -45q51 -29 115 -29q63 2 112 54 q51 49 76 100z"/>
<glyph glyph-name="exclamdown" horiz-adv-x="530" unicode="¡" d="M213 1096h104v-211h-104v211zM313 -377h-98v494l25 594h49l24 -594v-494z"/>
<glyph glyph-name="cent" d="M557 -242v217q-238 21 -344 181q-109 161 -109 381q0 219 119 372q115 154 334 168v182h66v-182q163 -6 274 -92q106 -88 125 -258h-78q-12 133 -98 203q-88 71 -223 80v-967q137 14 225 102t106 226h78q-70 -365 -409 -396v-217h-66zM557 43v967q-182 -19 -278 -154 q-97 -137 -97 -319q0 -209 94 -342q93 -136 281 -152z" unicode="¢"/>
<glyph glyph-name="sterling" d="M102 676v67h123q-47 82 -84 174q-39 88 -39 187q2 194 142 295q135 98 323 98q482 0 482 -498v-8h-78v12q0 412 -402 416q-180 0 -282 -82q-107 -84 -107 -229q2 -109 49 -197q43 -88 84 -168h328v-67h-289q45 -64 47 -221q-2 -117 -61 -219q-57 -103 -141 -173l4 -4 q45 31 94 54q47 20 98 20q64 0 115 -12q53 -17 98 -35q47 -16 92 -29q45 -14 95 -14q92 0 157 45q64 39 119 94l45 -67q-59 -64 -139 -105q-80 -43 -170 -45q-62 0 -115 17q-55 12 -106 28q-47 21 -97 33q-49 12 -100 12q-74 0 -127 -24q-55 -25 -119 -66l-51 70 q90 82 160 186q69 105 72 238q-3 131 -60 217h-160z" unicode="£"/>
<glyph glyph-name="currency" d="M569 276q174 3 295 127q121 121 123 304q-2 184 -123 305q-121 123 -295 125q-174 -2 -293 -125q-122 -121 -124 -305q2 -183 124 -304q119 -124 293 -127zM1008 213l-109 111q-149 -125 -332 -125q-180 0 -327 125l-113 -115l-55 55l114 113q-123 149 -125 330 q0 182 125 329l-116 115l55 55l115 -114q147 120 327 122q183 0 332 -125l111 113l55 -55l-113 -111q125 -147 125 -329q0 -183 -125 -328l111 -111z" unicode="¤"/>
<glyph glyph-name="yen" d="M-14 1462h98l487 -766l490 766h92l-487 -762h188v-67h-246v-160h246v-68h-246v-405h-78v405h-245v68h245v160h-245v67h188z" unicode="¥"/>
<glyph glyph-name="brokenbar" horiz-adv-x="455" unicode="¦" d="M188 842v512h78v-512h-78zM188 -182v512h78v-512h-78z"/>
<glyph glyph-name="section" d="M919 1098h-77v20q0 119 -66 209q-74 100 -213 102h-6q-90 0 -168 -55q-80 -57 -88 -160q2 -135 117 -217q108 -84 246 -151q69 -33 135 -70q65 -39 116 -86q113 -92 115 -254q0 -117 -63 -184q-64 -68 -164 -94q61 -54 90 -109q26 -55 26 -143q-2 -152 -102 -217 q-98 -66 -242 -66q-178 2 -274 113q-98 108 -98 282h78q6 -139 75 -231q70 -94 217 -96q125 0 197 53q70 51 72 162q-2 133 -115 215q-111 84 -254 153q-158 86 -262 179q-105 90 -105 232v5q3 100 72 172q64 72 156 103q-70 57 -92 133q-21 58 -21 95q0 11 2 21 q2 129 107 209q95 74 220 74h13q178 -2 266 -109q90 -106 90 -290zM383 919q-74 -28 -133 -83q-64 -60 -66 -146q0 -51 23 -92q20 -39 51 -74q35 -33 74 -59q37 -27 73 -51q170 -101 338 -207h4q21 0 60 20q41 23 74 49q69 60 71 160q-2 107 -84 180q-82 70 -174 119z" unicode="§"/>
<glyph glyph-name="dieresis" horiz-adv-x="342" unicode="¨" d="M377 1216h-90v211h90v-211zM53 1216h-90v211h90v-211z"/>
<glyph glyph-name="copyright" horiz-adv-x="1638" unicode="©" d="M819 1497q328 -4 545 -221t221 -545q-4 -323 -221 -541q-217 -221 -545 -225q-323 4 -540 225q-222 218 -226 541q4 328 226 545q217 217 540 221zM1227 897h-78q-60 246 -311 250q-183 -2 -281 -115q-100 -115 -100 -297q0 -176 104 -295q100 -125 281 -127 q127 0 202 76q78 70 105 186h78q-23 -149 -127 -237q-107 -92 -258 -92q-211 2 -334 141q-127 137 -129 346q0 215 125 348q119 131 332 133q153 0 262 -79q108 -84 129 -238zM821 1429q-301 -4 -491 -200q-197 -195 -199 -496q2 -299 201 -495q190 -201 489 -205 q301 4 492 207q190 198 194 493q-2 301 -194 496q-191 196 -492 200z"/>
<glyph glyph-name="ordfeminine" horiz-adv-x="635" unicode="ª" d="M125 1221h-66q27 215 271 217q100 0 174 -33q71 -39 73 -141v-365q-2 -29 7 -51q4 -25 30 -25q13 0 37 4v-55q-22 -4 -41 -4q-57 0 -73 29q-19 24 -19 57v6v29h-4q-18 -58 -84 -96q-65 -43 -168 -43h-12q-94 0 -154 43q-69 40 -69 153q0 59 24 96q23 37 60 58 q77 39 168 41q163 10 202 34q33 24 33 91v8q0 55 -51 82q-53 26 -139 26q-84 0 -138 -41q-53 -43 -61 -120zM512 1135q-31 -29 -98 -35q-70 -6 -142 -15q-178 -14 -180 -139q0 -59 45 -98q41 -43 119 -43q88 0 139 31q51 26 76 65q27 39 35 74q6 33 6 45v115z"/>
<glyph glyph-name="guillemotleft" horiz-adv-x="797" unicode="«" d="M633 248l-234 268v82l234 268v-104l-174 -205l174 -209v-100zM371 248l-234 268v82l234 268v-104l-174 -205l174 -209v-100z"/>
<glyph glyph-name="logicalnot" horiz-adv-x="1229" unicode="¬" d="M1053 221v457h-955v78h1032v-535h-77z"/>
<glyph glyph-name="registered" horiz-adv-x="1638" unicode="®" d="M819 1497q328 -4 545 -221t221 -545q-4 -323 -221 -541q-217 -221 -545 -225q-323 4 -540 225q-222 218 -226 541q4 328 226 545q217 217 540 221zM821 1429q-301 -4 -491 -200q-197 -193 -199 -498q2 -295 201 -493q190 -201 489 -205q301 4 492 207q190 198 194 493 q-2 301 -194 496q-191 196 -492 200zM618 1116v-352h193q53 0 106 6q25 4 50 10q22 4 41 13q41 18 65 53q25 33 25 90q-2 102 -72 143q-72 37 -158 37h-250zM541 279v905h340q294 -2 294 -245q0 -112 -65 -171q-68 -57 -168 -74l270 -415h-86l-272 417h-236v-417h-77z"/>
<glyph glyph-name="macron" horiz-adv-x="342" unicode="¯" d="M420 1288h-496v68h496v-68z"/>
<glyph glyph-name="degree" horiz-adv-x="819" unicode="°" d="M410 852q-125 2 -207 86q-84 82 -86 207q2 127 86 209q82 82 207 84q127 -2 208 -84q82 -82 84 -209q-2 -125 -84 -207q-81 -84 -208 -86zM410 1370q-95 -2 -152 -66q-63 -63 -63 -159q0 -94 63 -158q57 -65 152 -68q94 3 155 68q58 64 60 158q-2 96 -60 159 q-61 64 -155 66z"/>
<glyph glyph-name="plusminus" horiz-adv-x="1229" unicode="±" d="M98 0v78h1032v-78h-1032zM575 645v387h78v-387h477v-78h-477v-387h-78v387h-477v78h477z"/>
<glyph glyph-name="twosuperior" horiz-adv-x="682" unicode="²" d="M98 618h549v-55h-614q4 64 28 115q27 49 64 90q82 78 184 137q107 60 185 129q79 68 81 164q0 72 -53 127q-55 55 -174 57q-231 -6 -233 -254h-66q8 142 76 226q65 82 223 84q127 0 209 -58q82 -57 84 -184q-2 -100 -78 -176q-78 -76 -180 -139q-98 -58 -174 -113 q-78 -57 -111 -150z"/>
<glyph glyph-name="threesuperior" horiz-adv-x="682" unicode="³" d="M37 850h65v-6q0 -111 70 -174q70 -70 195 -70q102 0 180 53q76 54 78 148q-2 112 -97 153q-74 33 -165 33q-22 0 -46 -2v55q54 0 105 9q24 4 49 10q23 6 41 14q90 35 92 141q-2 86 -78 129q-75 39 -159 39q-117 -2 -177 -65q-59 -66 -65 -172h-66q9 286 318 293 q114 0 203 -50q88 -53 90 -174q0 -75 -47 -127q-50 -53 -134 -67v-4q97 -11 150 -68q51 -59 51 -147q-2 -129 -92 -193q-88 -63 -221 -63q-340 0 -340 298v7z"/>
<glyph glyph-name="acute" horiz-adv-x="342" unicode="´" d="M53 1210l246 287h104l-274 -287h-76z"/>
<glyph glyph-name="mu" horiz-adv-x="1063" unicode="µ" d="M948 1053v-1053h-78v225h-4q-43 -116 -145 -182q-105 -66 -232 -68q-84 0 -161 27q-78 25 -131 88h-5v-467h-77v1430h77v-666q0 -41 9 -98q8 -56 35 -113q30 -57 90 -92q59 -41 165 -41q181 2 279 125q100 119 100 315v570h78z"/>
<glyph glyph-name="paragraph" horiz-adv-x="1229" unicode="¶" d="M559 -299v963q-182 2 -301 120q-121 113 -123 277q6 399 457 401h444v-1761h-78v1694h-321v-1694h-78z"/>
<glyph glyph-name="cedilla" horiz-adv-x="342" unicode="¸" d="M170 0h70l-99 -115l4 -4q15 8 33 15q19 4 43 4h6q58 0 101 -35q45 -35 47 -115q0 -78 -58 -115q-57 -36 -151 -36q-131 4 -184 43l22 49q35 -12 74 -23q39 -12 90 -14q49 0 88 22q39 21 41 74q-2 49 -35 74q-35 20 -65 20q-64 0 -109 -24l-33 26z"/>
<glyph glyph-name="onesuperior" horiz-adv-x="682" unicode="¹" d="M426 1419v-856h-66v760q-94 -96 -239 -109v56q158 26 246 149h59z"/>
<glyph glyph-name="ordmasculine" horiz-adv-x="684" unicode="º" d="M342 805q135 2 199 88q59 84 59 201q0 118 -59 202q-64 84 -199 86q-131 -2 -195 -86q-63 -84 -63 -202q0 -117 63 -201q64 -86 195 -88zM342 750q-156 2 -240 98t-84 246q0 151 84 245q84 97 240 99q158 -2 242 -99q82 -94 82 -245q0 -150 -82 -246q-84 -96 -242 -98z "/>
<glyph glyph-name="guillemotright" horiz-adv-x="797" unicode="»" d="M426 248v100l174 209l-174 205v104l233 -268v-82zM164 248v100l174 209l-174 205v104l233 -268v-82z"/>
<glyph glyph-name="onequarter" horiz-adv-x="1708" unicode="¼" d="M1313 268v512h-4l-363 -512h367zM1282 848h96v-580h146v-55h-146v-213h-65v213h-441v55zM498 1419v-856h-66v760q-94 -96 -240 -109v56q158 26 246 149h60zM309 -49l952 1511h82l-952 -1511h-82z"/>
<glyph glyph-name="onehalf" horiz-adv-x="1708" unicode="½" d="M1059 55h544v-55h-614q4 63 29 115q26 49 63 90q82 78 185 137q106 59 184 129q80 68 82 164q0 72 -53 127q-56 55 -175 57q-231 -6 -233 -254h-66q9 142 76 225q66 82 223 84q127 0 209 -57t84 -184q-2 -101 -77 -176q-78 -76 -181 -140q-98 -57 -174 -112 q-76 -58 -106 -150zM436 1419v-856h-65v760q-95 -96 -240 -109v56q158 26 246 149h59zM248 -49l952 1511h82l-952 -1511h-82z"/>
<glyph glyph-name="threequarters" horiz-adv-x="1708" unicode="¾" d="M1374 268v512h-4l-362 -512h366zM1343 848h97v-580h145v-55h-145v-213h-66v213h-440v55zM405 -49l953 1511h82l-953 -1511h-82zM68 850h65v-6q0 -111 70 -174q69 -70 194 -70q103 0 180 53q76 54 78 148q-2 112 -96 153q-74 33 -165 33q-22 0 -46 -2v55q53 0 105 9 q24 4 49 10q22 6 41 14q90 35 92 141q-2 86 -78 129q-76 39 -160 39q-116 -2 -176 -65q-59 -66 -65 -172h-66q8 286 318 293q114 0 202 -50q88 -53 90 -174q0 -75 -47 -127q-49 -53 -133 -67v-4q96 -11 150 -68q51 -59 51 -147q-2 -129 -92 -193q-88 -63 -221 -63 q-340 0 -340 296v9z"/>
<glyph glyph-name="questiondown" horiz-adv-x="1063" unicode="¿" d="M588 1096v-211h-105v211h105zM895 86h78q0 -221 -115 -352q-115 -133 -340 -135q-168 0 -280 92q-119 90 -121 274q0 129 57 207q29 39 59 76q31 33 66 65q37 31 74 68q35 35 63 80q29 49 47 112q17 64 17 152h77q-2 -160 -53 -254q-51 -98 -127 -166q-78 -69 -137 -151 q-63 -82 -65 -189q2 -149 102 -219q96 -70 227 -70q187 3 279 119q92 113 92 291z"/>
<glyph glyph-name="Agrave" horiz-adv-x="1214" unicode="À" d="M287 547h643l-314 827h-4zM563 1462h98l578 -1462h-96l-185 469h-700l-186 -469h-97zM736 1564h-76l-274 287h104z"/>
<glyph glyph-name="Aacute" horiz-adv-x="1214" unicode="Á" d="M287 547h643l-314 827h-4zM563 1462h98l578 -1462h-96l-185 469h-700l-186 -469h-97zM505 1564l246 287h104l-274 -287h-76z"/>
<glyph glyph-name="Acircumflex" horiz-adv-x="1214" unicode="Â" d="M287 547h643l-314 827h-4zM563 1462h98l578 -1462h-96l-185 469h-700l-186 -469h-97zM575 1851h82l237 -287h-77l-201 236l-199 -236h-77z"/>
<glyph glyph-name="Atilde" horiz-adv-x="1214" unicode="Ã" d="M287 547h643l-314 827h-4zM563 1462h98l578 -1462h-96l-185 469h-700l-186 -469h-97zM381 1587h-59q6 71 47 127q41 55 111 57q37 0 73 -16q33 -17 70 -39q37 -19 74 -39q35 -23 65 -23q43 0 68 39q22 37 25 78h59q-8 -74 -43 -125q-35 -57 -113 -59q-37 0 -71 20 q-37 21 -70 39q-70 53 -143 58q-43 -3 -64 -37q-22 -37 -29 -80z"/>
<glyph glyph-name="Adieresis" horiz-adv-x="1214" unicode="Ä" d="M287 547h643l-314 827h-4zM563 1462h98l578 -1462h-96l-185 469h-700l-186 -469h-97zM826 1570h-90v211h90v-211zM502 1570h-90v211h90v-211z"/>
<glyph glyph-name="Aring" horiz-adv-x="1214" unicode="Å" d="M287 547h643l-314 827h-4zM563 1462h98l578 -1462h-96l-185 469h-700l-186 -469h-97zM462 1696q0 -64 43 -105q40 -43 104 -43q63 0 104 43q41 41 43 105q-2 63 -43 104t-104 43q-64 -2 -104 -43q-43 -41 -43 -104zM406 1696q2 88 60 145q57 55 143 57q88 -2 145 -57 q56 -57 58 -145q-2 -86 -58 -144q-57 -59 -145 -59q-86 0 -143 59q-58 58 -60 144z"/>
<glyph glyph-name="AE" horiz-adv-x="1782" unicode="Æ" d="M883 598v786h-97l-411 -786h508zM-18 0l763 1462h1004v-78h-776v-585h716v-78h-716v-643h778v-78h-868v520h-549l-271 -520h-81z"/>
<glyph glyph-name="Ccedilla" horiz-adv-x="1442" unicode="Ç" d="M1358 1026h-90q-33 186 -170 289q-140 102 -328 104q-289 -4 -444 -203q-162 -194 -162 -485q0 -287 162 -483q155 -201 444 -205q219 4 362 162q144 155 160 364h90q-28 -266 -196 -430q-168 -170 -416 -174h-10l-68 -80l4 -4q15 8 33 15q18 4 43 4h6q57 0 101 -35 q45 -35 47 -115q0 -78 -58 -115q-57 -36 -151 -36q-131 4 -185 43l23 49q35 -12 74 -23q39 -12 90 -14q49 0 88 22q39 21 41 74q-2 49 -35 74q-35 20 -66 20q-63 0 -108 -24l-33 26l90 123q-297 35 -458 244q-164 211 -164 518q2 332 184 545q180 217 512 221 q195 -2 313 -70q117 -67 176 -157q60 -88 80 -160q21 -72 19 -84z"/>
<glyph glyph-name="Egrave" horiz-adv-x="1147" unicode="È" d="M219 78h903v-78h-993v1462h983v-78h-893v-585h840v-78h-840v-643zM699 1564h-76l-274 287h104z"/>
<glyph glyph-name="Eacute" horiz-adv-x="1147" unicode="É" d="M219 78h903v-78h-993v1462h983v-78h-893v-585h840v-78h-840v-643zM468 1564l246 287h104l-274 -287h-76z"/>
<glyph glyph-name="Ecircumflex" horiz-adv-x="1147" unicode="Ê" d="M219 78h903v-78h-993v1462h983v-78h-893v-585h840v-78h-840v-643zM537 1851h82l237 -287h-77l-201 236l-199 -236h-77z"/>
<glyph glyph-name="Edieresis" horiz-adv-x="1147" unicode="Ë" d="M219 78h903v-78h-993v1462h983v-78h-893v-585h840v-78h-840v-643zM809 1570h-90v211h90v-211zM485 1570h-90v211h90v-211z"/>
<glyph glyph-name="Igrave" horiz-adv-x="348" unicode="Ì" d="M129 0v1462h90v-1462h-90zM289 1564h-76l-274 287h104z"/>
<glyph glyph-name="Iacute" horiz-adv-x="348" unicode="Í" d="M129 0v1462h90v-1462h-90zM54 1564l246 287h104l-274 -287h-76z"/>
<glyph glyph-name="Icircumflex" horiz-adv-x="348" unicode="Î" d="M129 0v1462h90v-1462h-90zM128 1851h82l237 -287h-77l-201 236l-199 -236h-77z"/>
<glyph glyph-name="Idieresis" horiz-adv-x="348" unicode="Ï" d="M129 0v1462h90v-1462h-90zM377 1570h-90v211h90v-211zM53 1570h-90v211h90v-211z"/>
<glyph glyph-name="Eth" horiz-adv-x="1366" unicode="Ð" d="M219 811h541v-68h-541v-665h393h12q210 0 384 139q180 145 186 516q-2 223 -62 356q-61 132 -155 195q-94 66 -195 84q-102 16 -188 16h-375v-573zM129 811v651h479q387 -6 537 -223q139 -209 139 -490v-16q0 -317 -162 -520q-166 -211 -518 -213h-475v743h-139v68h139z "/>
<glyph glyph-name="Ntilde" horiz-adv-x="1388" unicode="Ñ" d="M129 0v1462h113l923 -1341h4v1341h90v-1462h-106l-930 1352h-4v-1352h-90zM466 1587h-59q6 71 47 127q41 55 111 57q37 0 73 -16q33 -17 70 -39q37 -19 74 -39q35 -23 65 -23q43 0 68 39q22 37 25 78h59q-8 -74 -43 -125q-35 -57 -113 -59q-37 0 -71 20q-37 21 -70 39 q-70 53 -143 58q-43 -3 -64 -37q-22 -37 -29 -80z"/>
<glyph glyph-name="Ograve" horiz-adv-x="1517" unicode="Ò" d="M154 731q0 -287 161 -483q156 -201 445 -205q289 4 446 205q156 196 158 483q-2 291 -158 485q-157 199 -446 203q-289 -4 -445 -203q-161 -194 -161 -485zM1454 731q-2 -328 -182 -541q-88 -104 -217 -163q-129 -60 -295 -62q-164 2 -293 62q-129 59 -219 163 q-182 213 -185 541q3 332 185 545q180 217 512 221q332 -4 512 -221q180 -213 182 -545zM891 1564h-76l-274 287h104z"/>
<glyph glyph-name="Oacute" horiz-adv-x="1517" unicode="Ó" d="M154 731q0 -287 161 -483q156 -201 445 -205q289 4 446 205q156 196 158 483q-2 291 -158 485q-157 199 -446 203q-289 -4 -445 -203q-161 -194 -161 -485zM1454 731q-2 -328 -182 -541q-88 -104 -217 -163q-129 -60 -295 -62q-164 2 -293 62q-129 59 -219 163 q-182 213 -185 541q3 332 185 545q180 217 512 221q332 -4 512 -221q180 -213 182 -545zM657 1564l246 287h104l-274 -287h-76z"/>
<glyph glyph-name="Ocircumflex" horiz-adv-x="1517" unicode="Ô" d="M154 731q0 -287 161 -483q156 -201 445 -205q289 4 446 205q156 196 158 483q-2 291 -158 485q-157 199 -446 203q-289 -4 -445 -203q-161 -194 -161 -485zM1454 731q-2 -328 -182 -541q-88 -104 -217 -163q-129 -60 -295 -62q-164 2 -293 62q-129 59 -219 163 q-182 213 -185 541q3 332 185 545q180 217 512 221q332 -4 512 -221q180 -213 182 -545zM729 1851h82l237 -287h-77l-201 236l-199 -236h-77z"/>
<glyph glyph-name="Otilde" horiz-adv-x="1517" unicode="Õ" d="M154 731q0 -287 161 -483q156 -201 445 -205q289 4 446 205q156 196 158 483q-2 291 -158 485q-157 199 -446 203q-289 -4 -445 -203q-161 -194 -161 -485zM1454 731q-2 -328 -182 -541q-88 -104 -217 -163q-129 -60 -295 -62q-164 2 -293 62q-129 59 -219 163 q-182 213 -185 541q3 332 185 545q180 217 512 221q332 -4 512 -221q180 -213 182 -545zM533 1587h-59q6 71 47 127q41 55 111 57q37 0 73 -16q33 -17 70 -39q37 -19 74 -39q35 -23 65 -23q43 0 68 39q22 37 25 78h59q-8 -74 -43 -125q-35 -57 -113 -59q-37 0 -71 20 q-37 21 -70 39q-70 53 -143 58q-43 -3 -64 -37q-22 -37 -29 -80z"/>
<glyph glyph-name="Odieresis" horiz-adv-x="1517" unicode="Ö" d="M154 731q0 -287 161 -483q156 -201 445 -205q289 4 446 205q156 196 158 483q-2 291 -158 485q-157 199 -446 203q-289 -4 -445 -203q-161 -194 -161 -485zM1454 731q-2 -328 -182 -541q-88 -104 -217 -163q-129 -60 -295 -62q-164 2 -293 62q-129 59 -219 163 q-182 213 -185 541q3 332 185 545q180 217 512 221q332 -4 512 -221q180 -213 182 -545zM979 1570h-90v211h90v-211zM655 1570h-90v211h90v-211z"/>
<glyph glyph-name="multiply" horiz-adv-x="1229" unicode="×" d="M162 119l397 397l-397 399l53 56l399 -400l398 400l55 -56l-397 -399l397 -397l-55 -56l-398 400l-399 -400z"/>
<glyph glyph-name="Oslash" horiz-adv-x="1517" unicode="Ø" d="M70 33l161 176q-168 211 -168 522q3 332 185 545q180 217 512 221q297 -4 475 -186l139 151l53 -49l-143 -156q168 -208 170 -526q-2 -328 -182 -541q-88 -104 -217 -163q-129 -60 -295 -62q-303 2 -481 191l-156 -172zM293 274l885 973q-156 168 -418 172 q-289 -4 -445 -203q-161 -194 -161 -485q0 -266 139 -457zM1225 1192l-887 -971q156 -176 422 -178q289 4 446 205q156 196 158 483q-2 270 -139 461z"/>
<glyph glyph-name="Ugrave" horiz-adv-x="1376" unicode="Ù" d="M129 1462h90v-876q0 -66 14 -158q15 -90 58 -178q45 -88 139 -146q92 -59 248 -61q266 2 377 147q102 141 102 387v9v876h90v-876v-9q0 -261 -119 -430q-127 -178 -450 -182q-191 2 -303 70q-113 67 -166 168q-51 100 -66 205q-14 92 -14 161v17v876zM816 1564h-76 l-274 287h104z"/>
<glyph glyph-name="Uacute" horiz-adv-x="1376" unicode="Ú" d="M129 1462h90v-876q0 -66 14 -158q15 -90 58 -178q45 -88 139 -146q92 -59 248 -61q266 2 377 147q102 141 102 387v9v876h90v-876v-9q0 -261 -119 -430q-127 -178 -450 -182q-191 2 -303 70q-113 67 -166 168q-51 100 -66 205q-14 92 -14 161v17v876zM582 1564l246 287 h104l-274 -287h-76z"/>
<glyph glyph-name="Ucircumflex" horiz-adv-x="1376" unicode="Û" d="M129 1462h90v-876q0 -66 14 -158q15 -90 58 -178q45 -88 139 -146q92 -59 248 -61q266 2 377 147q102 141 102 387v9v876h90v-876v-9q0 -261 -119 -430q-127 -178 -450 -182q-191 2 -303 70q-113 67 -166 168q-51 100 -66 205q-14 92 -14 161v17v876zM654 1851h82 l237 -287h-77l-201 236l-199 -236h-77z"/>
<glyph glyph-name="Udieresis" horiz-adv-x="1376" unicode="Ü" d="M129 1462h90v-876q0 -66 14 -158q15 -90 58 -178q45 -88 139 -146q92 -59 248 -61q266 2 377 147q102 141 102 387v9v876h90v-876v-9q0 -261 -119 -430q-127 -178 -450 -182q-191 2 -303 70q-113 67 -166 168q-51 100 -66 205q-14 92 -14 161v17v876zM904 1570h-90v211 h90v-211zM580 1570h-90v211h90v-211z"/>
<glyph glyph-name="Yacute" horiz-adv-x="1175" unicode="Ý" d="M588 688l530 774h100l-587 -850v-612h-90v612l-584 850h102zM487 1564l246 287h104l-274 -287h-76z"/>
<glyph glyph-name="Thorn" horiz-adv-x="1214" unicode="Þ" d="M219 1139v-656h514q100 0 170 33q68 29 107 76q43 47 61 106q16 58 16 113q0 45 -10 100q-14 54 -49 107t-102 88q-70 33 -181 33h-526zM129 0v1462h90v-246h533q65 0 139 -12q71 -16 137 -59q68 -41 109 -123t41 -213q-7 -399 -459 -404h-500v-405h-90z"/>
<glyph glyph-name="germandbls" horiz-adv-x="1024" unicode="ß" d="M424 776v68q153 0 262 71q111 70 113 232q-2 137 -90 205q-86 67 -218 67q-294 -6 -294 -309v-10v-1100h-78v1100q-2 383 372 387q166 0 275 -82q108 -86 110 -258v-6q0 -253 -243 -316v-4q315 -51 315 -383q0 -145 -45 -233t-113 -133q-65 -43 -135 -58 q-67 -14 -118 -14h-113v68h78h12q43 0 98 12q60 12 119 47q59 37 100 113q39 73 39 198q-2 199 -127 273q-121 65 -308 65h-11z"/>
<glyph glyph-name="agrave" horiz-adv-x="1024" unicode="à" d="M891 803v-608v-14q0 -40 10 -72q10 -41 59 -41q21 0 58 6v-66q-33 -8 -64 -8q-90 0 -114 47q-27 38 -27 99v8v55h-4q-37 -94 -137 -162q-103 -70 -254 -72q-152 0 -250 68q-100 66 -102 229q0 93 36 154q35 57 93 90q59 35 127 49q34 8 67 15q33 4 64 4q251 14 313 55 q35 25 43 63q6 37 6 101q0 20 -10 55q-12 33 -45 68q-31 34 -88 61q-58 23 -150 23q-295 -2 -323 -281h-78q22 348 401 348h10q138 0 244 -55q113 -60 115 -219zM813 598q-23 -25 -63 -37q-39 -14 -93 -20q-108 -13 -225 -25q-287 -18 -289 -244q0 -98 72 -161 q68 -66 205 -68q135 0 213 51q80 45 119 109q38 63 51 121q10 57 10 77v197zM638 1210h-76l-274 287h104z"/>
<glyph glyph-name="aacute" horiz-adv-x="1024" unicode="á" d="M891 803v-608v-14q0 -40 10 -72q10 -41 59 -41q21 0 58 6v-66q-33 -8 -64 -8q-90 0 -114 47q-27 38 -27 99v8v55h-4q-37 -94 -137 -162q-103 -70 -254 -72q-152 0 -250 68q-100 66 -102 229q0 93 36 154q35 57 93 90q59 35 127 49q34 8 67 15q33 4 64 4q251 14 313 55 q35 25 43 63q6 37 6 101q0 20 -10 55q-12 33 -45 68q-31 34 -88 61q-58 23 -150 23q-295 -2 -323 -281h-78q22 348 401 348h10q138 0 244 -55q113 -60 115 -219zM813 598q-23 -25 -63 -37q-39 -14 -93 -20q-108 -13 -225 -25q-287 -18 -289 -244q0 -98 72 -161 q68 -66 205 -68q135 0 213 51q80 45 119 109q38 63 51 121q10 57 10 77v197zM407 1210l246 287h104l-274 -287h-76z"/>
<glyph glyph-name="acircumflex" horiz-adv-x="1024" unicode="â" d="M891 803v-608v-14q0 -40 10 -72q10 -41 59 -41q21 0 58 6v-66q-33 -8 -64 -8q-90 0 -114 47q-27 38 -27 99v8v55h-4q-37 -94 -137 -162q-103 -70 -254 -72q-152 0 -250 68q-100 66 -102 229q0 93 36 154q35 57 93 90q59 35 127 49q34 8 67 15q33 4 64 4q251 14 313 55 q35 25 43 63q6 37 6 101q0 20 -10 55q-12 33 -45 68q-31 34 -88 61q-58 23 -150 23q-295 -2 -323 -281h-78q22 348 401 348h10q138 0 244 -55q113 -60 115 -219zM813 598q-23 -25 -63 -37q-39 -14 -93 -20q-108 -13 -225 -25q-287 -18 -289 -244q0 -98 72 -161 q68 -66 205 -68q135 0 213 51q80 45 119 109q38 63 51 121q10 57 10 77v197zM476 1497h82l237 -287h-77l-201 236l-199 -236h-77z"/>
<glyph glyph-name="atilde" horiz-adv-x="1024" unicode="ã" d="M891 803v-608v-14q0 -40 10 -72q10 -41 59 -41q21 0 58 6v-66q-33 -8 -64 -8q-90 0 -114 47q-27 38 -27 99v8v55h-4q-37 -94 -137 -162q-103 -70 -254 -72q-152 0 -250 68q-100 66 -102 229q0 93 36 154q35 57 93 90q59 35 127 49q34 8 67 15q33 4 64 4q251 14 313 55 q35 25 43 63q6 37 6 101q0 20 -10 55q-12 33 -45 68q-31 34 -88 61q-58 23 -150 23q-295 -2 -323 -281h-78q22 348 401 348h10q138 0 244 -55q113 -60 115 -219zM813 598q-23 -25 -63 -37q-39 -14 -93 -20q-108 -13 -225 -25q-287 -18 -289 -244q0 -98 72 -161 q68 -66 205 -68q135 0 213 51q80 45 119 109q38 63 51 121q10 57 10 77v197zM282 1233h-59q6 71 47 127q41 55 111 57q37 0 73 -16q33 -17 70 -39q37 -19 74 -39q35 -23 65 -23q43 0 68 39q22 37 25 78h59q-8 -74 -43 -125q-35 -57 -113 -59q-37 0 -71 20q-37 21 -70 39 q-70 53 -143 58q-43 -3 -64 -37q-22 -37 -29 -80z"/>
<glyph glyph-name="adieresis" horiz-adv-x="1024" unicode="ä" d="M891 803v-608v-14q0 -40 10 -72q10 -41 59 -41q21 0 58 6v-66q-33 -8 -64 -8q-90 0 -114 47q-27 38 -27 99v8v55h-4q-37 -94 -137 -162q-103 -70 -254 -72q-152 0 -250 68q-100 66 -102 229q0 93 36 154q35 57 93 90q59 35 127 49q34 8 67 15q33 4 64 4q251 14 313 55 q35 25 43 63q6 37 6 101q0 20 -10 55q-12 33 -45 68q-31 34 -88 61q-58 23 -150 23q-295 -2 -323 -281h-78q22 348 401 348h10q138 0 244 -55q113 -60 115 -219zM813 598q-23 -25 -63 -37q-39 -14 -93 -20q-108 -13 -225 -25q-287 -18 -289 -244q0 -98 72 -161 q68 -66 205 -68q135 0 213 51q80 45 119 109q38 63 51 121q10 57 10 77v197zM728 1216h-90v211h90v-211zM404 1216h-90v211h90v-211z"/>
<glyph glyph-name="aring" horiz-adv-x="1024" unicode="å" d="M891 803v-608v-14q0 -40 10 -72q10 -41 59 -41q21 0 58 6v-66q-33 -8 -64 -8q-90 0 -114 47q-27 38 -27 99v8v55h-4q-37 -94 -137 -162q-103 -70 -254 -72q-152 0 -250 68q-100 66 -102 229q0 93 36 154q35 57 93 90q59 35 127 49q34 8 67 15q33 4 64 4q251 14 313 55 q35 25 43 63q6 37 6 101q0 20 -10 55q-12 33 -45 68q-31 34 -88 61q-58 23 -150 23q-295 -2 -323 -281h-78q22 348 401 348h10q138 0 244 -55q113 -60 115 -219zM813 598q-23 -25 -63 -37q-39 -14 -93 -20q-108 -13 -225 -25q-287 -18 -289 -244q0 -98 72 -161 q68 -66 205 -68q135 0 213 51q80 45 119 109q38 63 51 121q10 57 10 77v197zM374 1311q0 -64 43 -105q40 -43 104 -43q63 0 104 43q41 41 43 105q-2 63 -43 104t-104 43q-64 -2 -104 -43q-43 -41 -43 -104zM318 1311q2 88 60 145q57 55 143 57q88 -2 145 -57q56 -57 58 -145 q-2 -86 -58 -144q-57 -59 -145 -59q-86 0 -143 59q-58 58 -60 144z"/>
<glyph glyph-name="ae" horiz-adv-x="1821" unicode="æ" d="M1753 516h-842q-1 -22 -1 -43q0 -171 87 -289q99 -139 299 -141q310 2 367 307h78q-72 -368 -445 -375q-157 0 -270 78t-152 228h-4q-114 -299 -428 -306q-151 0 -262 70q-112 70 -114 223q0 94 38 156q35 61 93 94q59 35 127 49q65 13 124 13q70 8 142 12q69 2 125 14 q57 10 90 49q27 31 27 85q0 12 -1 24q0 246 -302 246h-5q-143 0 -231 -68q-90 -70 -105 -219h-77q14 182 127 270q110 84 286 84q148 0 250 -53q102 -57 119 -215h4q106 268 399 268q244 -4 361 -168q99 -138 99 -327q0 -32 -3 -66zM831 412v180h-4q-12 -21 -49 -33 q-37 -14 -90 -20q-111 -11 -248 -21q-59 -2 -112 -14q-54 -15 -95 -45q-88 -58 -90 -191q0 -57 29 -100q25 -43 68 -72q88 -53 202 -53q158 2 271 109q112 102 118 260zM909 584h766v14q0 169 -96 285q-102 125 -283 127q-188 -2 -280 -127q-94 -121 -107 -299z"/>
<glyph glyph-name="ccedilla" horiz-adv-x="1063" unicode="ç" d="M985 727h-78q-12 141 -110 213q-99 70 -246 70q-197 -5 -299 -146q-107 -139 -107 -327q0 -215 103 -353q100 -139 303 -141q149 2 248 92q98 88 118 236h78q-69 -367 -413 -394l-80 -92l4 -4q14 8 33 15q18 4 43 4h6q57 0 100 -35q45 -35 47 -115q0 -78 -57 -115 q-58 -36 -152 -36q-131 4 -184 43l23 49q34 -12 73 -23q39 -12 90 -14q49 0 88 22q39 21 41 74q-2 49 -34 74q-35 20 -66 20q-63 0 -109 -24l-32 26l98 131q-233 23 -340 183q-106 154 -106 369v8q0 227 124 380q125 156 359 160q176 0 295 -84q121 -86 139 -266z"/>
<glyph glyph-name="egrave" horiz-adv-x="1063" unicode="è" d="M145 584h772q-4 172 -102 297q-100 124 -283 129q-176 -5 -274 -134t-113 -292zM995 516h-850v-8q0 -185 97 -320q96 -143 290 -145q310 4 377 313h78q-70 -376 -455 -381q-231 5 -348 158q-116 149 -116 368v7v19q0 215 112 376q117 170 352 174q248 -4 363 -166 q101 -143 101 -347q0 -24 -1 -48zM651 1210h-76l-274 287h104z"/>
<glyph glyph-name="eacute" horiz-adv-x="1063" unicode="é" d="M145 584h772q-4 172 -102 297q-100 124 -283 129q-176 -5 -274 -134t-113 -292zM995 516h-850v-8q0 -185 97 -320q96 -143 290 -145q310 4 377 313h78q-70 -376 -455 -381q-231 5 -348 158q-116 149 -116 368v7v19q0 215 112 376q117 170 352 174q248 -4 363 -166 q101 -143 101 -347q0 -24 -1 -48zM420 1210l246 287h104l-274 -287h-76z"/>
<glyph glyph-name="ecircumflex" horiz-adv-x="1063" unicode="ê" d="M145 584h772q-4 172 -102 297q-100 124 -283 129q-176 -5 -274 -134t-113 -292zM995 516h-850v-8q0 -185 97 -320q96 -143 290 -145q310 4 377 313h78q-70 -376 -455 -381q-231 5 -348 158q-116 149 -116 368v7v19q0 215 112 376q117 170 352 174q248 -4 363 -166 q101 -143 101 -347q0 -24 -1 -48zM489 1497h82l237 -287h-77l-201 236l-199 -236h-77z"/>
<glyph glyph-name="edieresis" horiz-adv-x="1063" unicode="ë" d="M145 584h772q-4 172 -102 297q-100 124 -283 129q-176 -5 -274 -134t-113 -292zM995 516h-850v-8q0 -185 97 -320q96 -143 290 -145q310 4 377 313h78q-70 -376 -455 -381q-231 5 -348 158q-116 149 -116 368v7v19q0 215 112 376q117 170 352 174q248 -4 363 -166 q101 -143 101 -347q0 -24 -1 -48zM741 1216h-90v211h90v-211zM417 1216h-90v211h90v-211z"/>
<glyph glyph-name="igrave" horiz-adv-x="344" unicode="ì" d="M211 0h-78v1053h78v-1053zM288 1210h-76l-274 287h104z"/>
<glyph glyph-name="iacute" horiz-adv-x="344" unicode="í" d="M211 0h-78v1053h78v-1053zM53 1210l246 287h104l-274 -287h-76z"/>
<glyph glyph-name="icircumflex" horiz-adv-x="344" unicode="î" d="M211 0h-78v1053h78v-1053zM124 1497h82l237 -287h-77l-201 236l-199 -236h-77z"/>
<glyph glyph-name="idieresis" horiz-adv-x="344" unicode="ï" d="M211 0h-78v1053h78v-1053zM376 1216h-90v211h90v-211zM52 1216h-90v211h90v-211z"/>
<glyph glyph-name="eth" horiz-adv-x="1100" unicode="ð" d="M299 1192l221 123q-104 80 -211 133l58 49q122 -66 221 -145l235 131l41 -45l-223 -125q389 -303 391 -803q0 -227 -119 -377q-118 -153 -362 -158q-246 5 -365 156q-120 150 -120 379q0 221 126 371q125 151 359 155q92 0 178 -31q82 -32 156 -120l4 4 q-101 215 -318 385l-229 -127zM551 969q-199 -4 -301 -140q-107 -135 -107 -319q0 -188 101 -324q102 -139 307 -143q211 2 307 141q96 135 96 326q0 184 -100 319q-100 136 -303 140z"/>
<glyph glyph-name="ntilde" horiz-adv-x="1063" unicode="ñ" d="M115 0v1053h77v-226h5q43 121 147 187q104 63 229 63q140 -2 217 -47q78 -47 111 -117q35 -69 43 -139q4 -72 4 -123v-651h-78v666q0 43 -4 102q-8 57 -37 113q-26 57 -88 92q-63 35 -170 37q-176 -2 -276 -123q-103 -121 -103 -318v-569h-77zM299 1233h-59q6 71 47 127 q41 55 111 57q37 0 73 -16q33 -17 70 -39q37 -19 74 -39q35 -23 65 -23q43 0 68 39q22 37 25 78h59q-8 -74 -43 -125q-35 -57 -113 -59q-37 0 -71 20q-37 21 -70 39q-70 53 -143 58q-43 -3 -64 -37q-22 -37 -29 -80z"/>
<glyph glyph-name="ograve" horiz-adv-x="1100" unicode="ò" d="M143 526q0 -194 107 -334q102 -145 299 -149q201 4 303 149q102 140 102 334q0 197 -102 338t-303 146q-197 -5 -299 -146q-107 -141 -107 -338zM66 526q0 232 126 389q125 158 357 162q235 -4 358 -162q125 -157 125 -389q0 -229 -125 -387q-123 -159 -358 -164 q-232 5 -357 164q-126 158 -126 387zM676 1210h-76l-274 287h104z"/>
<glyph glyph-name="oacute" horiz-adv-x="1100" unicode="ó" d="M143 526q0 -194 107 -334q102 -145 299 -149q201 4 303 149q102 140 102 334q0 197 -102 338t-303 146q-197 -5 -299 -146q-107 -141 -107 -338zM66 526q0 232 126 389q125 158 357 162q235 -4 358 -162q125 -157 125 -389q0 -229 -125 -387q-123 -159 -358 -164 q-232 5 -357 164q-126 158 -126 387zM445 1210l246 287h104l-274 -287h-76z"/>
<glyph glyph-name="ocircumflex" horiz-adv-x="1100" unicode="ô" d="M143 526q0 -194 107 -334q102 -145 299 -149q201 4 303 149q102 140 102 334q0 197 -102 338t-303 146q-197 -5 -299 -146q-107 -141 -107 -338zM66 526q0 232 126 389q125 158 357 162q235 -4 358 -162q125 -157 125 -389q0 -229 -125 -387q-123 -159 -358 -164 q-232 5 -357 164q-126 158 -126 387zM515 1497h82l237 -287h-77l-201 236l-199 -236h-77z"/>
<glyph glyph-name="otilde" horiz-adv-x="1100" unicode="õ" d="M143 526q0 -194 107 -334q102 -145 299 -149q201 4 303 149q102 140 102 334q0 197 -102 338t-303 146q-197 -5 -299 -146q-107 -141 -107 -338zM66 526q0 232 126 389q125 158 357 162q235 -4 358 -162q125 -157 125 -389q0 -229 -125 -387q-123 -159 -358 -164 q-232 5 -357 164q-126 158 -126 387zM318 1233h-59q6 71 47 127q41 55 111 57q37 0 73 -16q33 -17 70 -39q37 -19 74 -39q35 -23 65 -23q43 0 68 39q22 37 25 78h59q-8 -74 -43 -125q-35 -57 -113 -59q-37 0 -71 20q-37 21 -70 39q-70 53 -143 58q-43 -3 -64 -37 q-22 -37 -29 -80z"/>
<glyph glyph-name="odieresis" horiz-adv-x="1100" unicode="ö" d="M143 526q0 -194 107 -334q102 -145 299 -149q201 4 303 149q102 140 102 334q0 197 -102 338t-303 146q-197 -5 -299 -146q-107 -141 -107 -338zM66 526q0 232 126 389q125 158 357 162q235 -4 358 -162q125 -157 125 -389q0 -229 -125 -387q-123 -159 -358 -164 q-232 5 -357 164q-126 158 -126 387zM764 1216h-90v211h90v-211zM440 1216h-90v211h90v-211z"/>
<glyph glyph-name="divide" horiz-adv-x="1229" unicode="÷" d="M512 104q0 48 33 78q28 29 71 29q45 0 76 -29q29 -30 31 -78q-2 -43 -31 -71q-31 -33 -76 -33q-43 0 -71 33q-33 28 -33 71zM512 926q0 47 33 77q28 29 71 29q45 0 76 -29q29 -30 31 -77q-2 -43 -31 -72q-31 -33 -76 -33q-43 0 -71 33q-33 29 -33 72zM1130 477h-1032v78 h1032v-78z"/>
<glyph glyph-name="oslash" horiz-adv-x="1100" unicode="ø" d="M1051 1003l-119 -127q100 -145 100 -350q0 -229 -125 -387q-123 -159 -358 -164q-217 5 -338 142l-111 -117l-49 47l117 125q-102 147 -102 354q0 232 126 389q125 158 357 162q221 -2 340 -145l112 119zM876 819l-612 -647q103 -127 285 -129q201 4 303 149 q102 140 102 334q0 164 -78 293zM223 229l613 647q-97 129 -287 134q-197 -5 -299 -146q-107 -141 -107 -338q0 -168 80 -297z"/>
<glyph glyph-name="ugrave" horiz-adv-x="1063" unicode="ù" d="M948 1053v-1053h-78v225h-4q-43 -116 -145 -182q-105 -66 -232 -68q-137 2 -213 52q-77 45 -112 114q-33 70 -41 142q-8 69 -8 118v652h77v-666q0 -41 9 -98q8 -56 35 -113q30 -57 90 -92q59 -41 165 -41q181 2 279 125q100 119 100 315v570h78zM654 1210h-76l-274 287 h104z"/>
<glyph glyph-name="uacute" horiz-adv-x="1063" unicode="ú" d="M948 1053v-1053h-78v225h-4q-43 -116 -145 -182q-105 -66 -232 -68q-137 2 -213 52q-77 45 -112 114q-33 70 -41 142q-8 69 -8 118v652h77v-666q0 -41 9 -98q8 -56 35 -113q30 -57 90 -92q59 -41 165 -41q181 2 279 125q100 119 100 315v570h78zM423 1210l246 287h104 l-274 -287h-76z"/>
<glyph glyph-name="ucircumflex" horiz-adv-x="1063" unicode="û" d="M948 1053v-1053h-78v225h-4q-43 -116 -145 -182q-105 -66 -232 -68q-137 2 -213 52q-77 45 -112 114q-33 70 -41 142q-8 69 -8 118v652h77v-666q0 -41 9 -98q8 -56 35 -113q30 -57 90 -92q59 -41 165 -41q181 2 279 125q100 119 100 315v570h78zM493 1497h82l237 -287 h-77l-201 236l-199 -236h-77z"/>
<glyph glyph-name="udieresis" horiz-adv-x="1063" unicode="ü" d="M948 1053v-1053h-78v225h-4q-43 -116 -145 -182q-105 -66 -232 -68q-137 2 -213 52q-77 45 -112 114q-33 70 -41 142q-8 69 -8 118v652h77v-666q0 -41 9 -98q8 -56 35 -113q30 -57 90 -92q59 -41 165 -41q181 2 279 125q100 119 100 315v570h78zM745 1216h-90v211h90 v-211zM421 1216h-90v211h90v-211z"/>
<glyph glyph-name="yacute" horiz-adv-x="909" unicode="ý" d="M428 6l-440 1047h92l391 -961l360 961h88l-450 -1166q-29 -77 -59 -133q-31 -55 -64 -84q-70 -47 -222 -47h-24v68q82 0 133 14q48 14 86 53q41 43 109 248zM349 1210l246 287h104l-274 -287h-76z"/>
<glyph glyph-name="thorn" d="M133 -377v1839h78v-651h4q25 88 119 174q92 88 264 92q242 -4 358 -164q115 -157 115 -389q0 -243 -115 -393q-116 -154 -358 -156q-131 0 -231 60q-103 59 -152 184h-4v-596h-78zM598 43q205 2 303 143q92 140 92 338q0 189 -90 334q-94 147 -305 152q-207 -5 -297 -148 q-88 -140 -88 -330v-8v-9q0 -186 82 -323q86 -145 303 -149z" unicode="þ"/>
<glyph glyph-name="dotlessi" horiz-adv-x="344" unicode="ı" d="M211 0h-78v1053h78v-1053z"/>
<glyph glyph-name="OE" horiz-adv-x="2163" unicode="Œ" d="M1264 1384v-585h774v-78h-774v-643h868v-78h-959v135h-4q-49 -67 -157 -117q-111 -51 -275 -53q-327 4 -497 221q-177 213 -177 539q0 321 181 543q176 225 510 229q247 0 419 -170v135h955v-78h-864zM1173 260v924q-2 43 -41 84q-38 39 -75 61q-133 90 -295 90 q-299 -4 -453 -207q-155 -198 -155 -487q0 -285 145 -479q143 -199 444 -203h9q131 0 249 55q50 25 109 72q29 22 47 47q16 23 16 43z"/>
<glyph glyph-name="oe" horiz-adv-x="1821" unicode="œ" d="M950 584h727q0 172 -88 297q-90 124 -268 129q-189 -5 -281 -129q-90 -122 -90 -290v-7zM1755 516h-805q-1 -19 -1 -37q0 -163 79 -289q88 -143 293 -147q145 0 231 84q86 82 117 219h78q-37 -168 -141 -268q-107 -101 -285 -103q-342 5 -410 310h-4q-76 -308 -393 -310 q-246 5 -346 166q-102 154 -102 359v12v12q0 223 110 383q109 166 344 170q316 -4 389 -311h4q84 309 408 311q237 -4 344 -170q92 -145 92 -338q0 -26 -2 -53zM516 43q211 4 287 158q41 69 55 151t14 160v10q0 195 -75 336q-80 147 -279 152q-211 -5 -295 -162 q-80 -150 -80 -327v-9q0 -190 90 -326q89 -139 283 -143z"/>
<glyph glyph-name="Scaron" horiz-adv-x="1290" unicode="Š" d="M1173 1044h-90q-8 189 -135 283q-129 92 -334 92h-8q-129 0 -254 -63q-59 -35 -98 -97q-41 -59 -41 -151q0 -84 45 -139q41 -58 113 -90q71 -33 159 -54q43 -12 90 -20q44 -10 91 -23q96 -16 186 -41q86 -26 158 -69q71 -43 114 -113q41 -72 41 -182q-6 -225 -172 -318 q-162 -94 -342 -94q-262 0 -436 119q-176 121 -180 399h90v-12q0 -226 149 -326q153 -102 369 -102h8q70 0 144 18q71 17 135 56q65 39 106 102q39 64 39 158t-41 153q-43 58 -114 95q-72 36 -158 57q-90 20 -187 37q-47 12 -90 24q-47 11 -90 23q-88 24 -159 63 q-72 43 -113 109q-45 67 -45 170q4 211 160 301q151 88 331 88q236 0 391 -104q154 -109 168 -349zM682 1564h-82l-236 287h78l199 -236l200 236h78z"/>
<glyph glyph-name="scaron" horiz-adv-x="985" unicode="š" d="M74 350h78q12 -145 108 -225q96 -82 240 -82q53 0 112 12q58 8 107 33q51 25 82 70q32 43 32 108q0 68 -28 111q-31 43 -84 65q-49 25 -115 39q-65 15 -133 27q-68 14 -131 35q-63 18 -117 49q-53 33 -82 84q-32 51 -32 131t36 133q33 51 89 82q112 55 246 55h9 q173 0 281 -76q107 -79 109 -260h-78q-2 144 -88 207q-88 62 -224 62q-112 0 -204 -43q-43 -25 -70 -62q-29 -39 -29 -98q0 -62 33 -100q29 -39 80 -64q25 -12 55 -20q27 -9 58 -19q32 -6 63 -12q31 -8 62 -17q161 -22 266 -86q49 -32 78 -86q28 -55 28 -137t-35 -137 q-36 -57 -100 -92q-59 -33 -131 -47q-74 -15 -145 -15q-183 0 -299 97q-117 94 -127 278zM525 1210h-82l-236 287h78l199 -236l200 236h78z"/>
<glyph glyph-name="Ydieresis" horiz-adv-x="1175" unicode="Ÿ" d="M588 688l530 774h100l-587 -850v-612h-90v612l-584 850h102zM808 1570h-90v211h90v-211zM484 1570h-90v211h90v-211z"/>
<glyph glyph-name="circumflex" horiz-adv-x="342" unicode="ˆ" d="M129 1497h82l237 -287h-77l-201 236l-199 -236h-77z"/>
<glyph glyph-name="caron" horiz-adv-x="342" unicode="ˇ" d="M199 1210h-82l-236 287h78l199 -236l200 236h78z"/>
<glyph glyph-name="ring" horiz-adv-x="342" unicode="˚" d="M23 1311q0 -64 43 -105q40 -43 104 -43q63 0 104 43q41 41 43 105q-2 63 -43 104t-104 43q-64 -2 -104 -43q-43 -41 -43 -104zM-33 1311q2 88 60 145q57 55 143 57q88 -2 145 -57q56 -57 58 -145q-2 -86 -58 -144q-57 -59 -145 -59q-86 0 -143 59q-58 58 -60 144z"/>
<glyph glyph-name="tilde" horiz-adv-x="342" unicode="˜" d="M-66 1233h-59q6 71 47 127q41 55 111 57q37 0 73 -16q33 -17 70 -39q37 -19 74 -39q35 -23 65 -23q43 0 68 39q22 37 25 78h59q-8 -74 -43 -125q-35 -57 -113 -59q-37 0 -71 20q-37 21 -70 39q-70 53 -143 58q-43 -3 -64 -37q-22 -37 -29 -80z"/>
<glyph glyph-name="endash" horiz-adv-x="1024" unicode="–" d="M0 518v78h1024v-78h-1024z"/>
<glyph glyph-name="emdash" horiz-adv-x="2048" unicode="—" d="M266 518v78h1516v-78h-1516z"/>
<glyph glyph-name="quoteleft" horiz-adv-x="418" unicode="‘" d="M293 1462v-67q-41 -23 -55 -82q-7 -29 -11 -58q-4 -28 -4 -51h43v-211h-104v211q0 86 28 158q17 35 41 61q25 27 62 39z"/>
<glyph glyph-name="quotesinglbase" horiz-adv-x="418" unicode="‚" d="M256 211v-211q0 -82 -27 -154q-28 -73 -104 -104v68q24 12 39 36q14 23 20 50q11 59 11 104h-43v211h104z"/>
<glyph glyph-name="quotedblleft" horiz-adv-x="645" unicode="“" d="M520 1462v-67q-41 -23 -55 -82q-6 -29 -10 -58q-4 -28 -4 -51h43v-211h-105v211q0 86 29 158q16 35 41 61q24 27 61 39zM262 1462v-67q-41 -23 -55 -82q-6 -29 -10 -58q-5 -28 -5 -51h44v-211h-105v211q0 86 29 158q16 35 41 61q24 27 61 39z"/>
<glyph glyph-name="quotedblright" horiz-adv-x="645" unicode="”" d="M256 1462v-211q0 -82 -27 -153q-28 -74 -104 -105v68q24 12 39 37q14 22 20 49q11 59 11 104h-43v211h104zM514 1462v-211q0 -82 -27 -153q-28 -74 -104 -105v68q25 12 39 37q14 22 20 49q11 59 11 104h-43v211h104z"/>
<glyph glyph-name="dagger" d="M111 1053h419v409h78v-409h420v-68h-420v-1284h-78v1284h-419v68z" unicode="†"/>
<glyph glyph-name="daggerdbl" d="M530 1462h78v-409h420v-68h-420v-807h420v-67h-420v-410h-78v410h-419v67h419v807h-419v68h419v409z" unicode="‡"/>
<glyph glyph-name="ellipsis" horiz-adv-x="2048" unicode="…" d="M1653 0v211h104v-211h-104zM971 0v211h104v-211h-104zM289 0v211h104v-211h-104z"/>
<glyph glyph-name="perthousand" horiz-adv-x="2199" unicode="‰" d="M393 1370q-112 -2 -172 -76q-61 -76 -61 -198v-8q0 -114 55 -191q53 -82 178 -84q117 2 176 82q58 80 58 201q0 116 -60 194q-59 78 -174 80zM395 1438q150 -2 230 -97q77 -94 79 -245q0 -154 -77 -250q-80 -101 -232 -101q-155 2 -233 99q-80 96 -80 252q0 151 88 245 q82 95 225 97zM1806 43q117 0 176 82q58 80 58 199q0 116 -60 196q-59 78 -174 80q-112 -2 -172 -78q-61 -76 -61 -198v-8q0 -114 55 -191q53 -82 178 -82zM1806 -25q-155 2 -233 99q-78 94 -78 250q0 151 86 245q82 97 225 99q150 -2 230 -99q81 -94 81 -245 q0 -154 -79 -248q-80 -99 -232 -101zM1075 43q117 0 176 82q60 80 60 199q0 116 -60 196q-61 78 -176 80q-113 -2 -172 -78t-59 -198q0 -119 53 -199q53 -82 178 -82zM1079 -25q-155 2 -233 99q-80 94 -80 250q0 151 88 245q82 97 225 99q150 -2 230 -99q77 -94 79 -245 q0 -154 -77 -248q-80 -99 -232 -101zM215 -49l952 1511h82l-952 -1511h-82z"/>
<glyph glyph-name="guilsinglleft" horiz-adv-x="530" unicode="‹" d="M371 248l-234 268v82l234 268v-104l-174 -205l174 -209v-100z"/>
<glyph glyph-name="guilsinglright" horiz-adv-x="530" unicode="›" d="M160 248v100l174 209l-174 205v104l233 -268v-82z"/>
<glyph glyph-name="trademark" horiz-adv-x="2027" unicode="™" d="M1421 754l311 708h121v-844h-65v777h-6l-342 -777h-37l-342 777h-6v-777h-66v844h121zM827 1462v-67h-293v-777h-65v777h-295v67h653z"/>
<glyph glyph-name="minus" horiz-adv-x="721" unicode="−" d="M580 518h-439v78h439v-78z"/>
</font>
</defs>
</svg>
